<mxfile host="app.diagrams.net" modified="2021-11-19T02:56:35.264Z" agent="5.0 (Windows NT 10.0; Win64; x64) AppleWebKit/537.36 (KHTML, like Gecko) Chrome/96.0.4664.45 Safari/537.36" etag="yvAZu70M0EgVylTPACdA" version="15.8.2" type="github">
  <diagram name="Page-1" id="edf60f1a-56cd-e834-aa8a-f176f3a09ee4">
    <mxGraphModel dx="4262" dy="1192" grid="1" gridSize="10" guides="1" tooltips="1" connect="1" arrows="1" fold="1" page="1" pageScale="1" pageWidth="1100" pageHeight="850" background="none" math="0" shadow="0">
      <root>
        <mxCell id="0" />
        <mxCell id="1" parent="0" />
        <mxCell id="WLESVQoLexFltELfVNAb-1" value="Start" style="ellipse;whiteSpace=wrap;html=1;" parent="1" vertex="1">
          <mxGeometry x="200" y="200" width="120" height="80" as="geometry" />
        </mxCell>
        <mxCell id="WLESVQoLexFltELfVNAb-2" value="" style="endArrow=classic;html=1;rounded=0;exitX=0.5;exitY=1;exitDx=0;exitDy=0;" parent="1" source="WLESVQoLexFltELfVNAb-1" target="WLESVQoLexFltELfVNAb-3" edge="1">
          <mxGeometry width="50" height="50" relative="1" as="geometry">
            <mxPoint x="310" y="440" as="sourcePoint" />
            <mxPoint x="260" y="370" as="targetPoint" />
          </mxGeometry>
        </mxCell>
        <mxCell id="WLESVQoLexFltELfVNAb-3" value="While flag is true" style="rhombus;whiteSpace=wrap;html=1;" parent="1" vertex="1">
          <mxGeometry x="215" y="350" width="90" height="90" as="geometry" />
        </mxCell>
        <mxCell id="WLESVQoLexFltELfVNAb-4" value="prompt user for selection" style="shape=parallelogram;perimeter=parallelogramPerimeter;whiteSpace=wrap;html=1;fixedSize=1;" parent="1" vertex="1">
          <mxGeometry x="40" y="365" width="120" height="60" as="geometry" />
        </mxCell>
        <mxCell id="WLESVQoLexFltELfVNAb-6" value="Exit" style="ellipse;whiteSpace=wrap;html=1;" parent="1" vertex="1">
          <mxGeometry x="390" y="355" width="120" height="80" as="geometry" />
        </mxCell>
        <mxCell id="WLESVQoLexFltELfVNAb-8" value="" style="endArrow=classic;html=1;rounded=0;exitX=0;exitY=0.5;exitDx=0;exitDy=0;entryX=1;entryY=0.5;entryDx=0;entryDy=0;" parent="1" source="WLESVQoLexFltELfVNAb-3" target="WLESVQoLexFltELfVNAb-4" edge="1">
          <mxGeometry relative="1" as="geometry">
            <mxPoint x="130" y="500" as="sourcePoint" />
            <mxPoint x="160" y="460" as="targetPoint" />
          </mxGeometry>
        </mxCell>
        <mxCell id="WLESVQoLexFltELfVNAb-9" value="True" style="edgeLabel;resizable=0;html=1;align=center;verticalAlign=middle;" parent="WLESVQoLexFltELfVNAb-8" connectable="0" vertex="1">
          <mxGeometry relative="1" as="geometry">
            <mxPoint y="-15" as="offset" />
          </mxGeometry>
        </mxCell>
        <mxCell id="WLESVQoLexFltELfVNAb-11" value="" style="endArrow=classic;html=1;rounded=0;entryX=0;entryY=0.5;entryDx=0;entryDy=0;exitX=1;exitY=0.5;exitDx=0;exitDy=0;" parent="1" source="WLESVQoLexFltELfVNAb-3" target="WLESVQoLexFltELfVNAb-6" edge="1">
          <mxGeometry relative="1" as="geometry">
            <mxPoint x="290" y="400" as="sourcePoint" />
            <mxPoint x="390" y="400" as="targetPoint" />
            <Array as="points">
              <mxPoint x="360" y="395" />
            </Array>
          </mxGeometry>
        </mxCell>
        <mxCell id="WLESVQoLexFltELfVNAb-12" value="False" style="edgeLabel;resizable=0;html=1;align=center;verticalAlign=middle;" parent="WLESVQoLexFltELfVNAb-11" connectable="0" vertex="1">
          <mxGeometry relative="1" as="geometry">
            <mxPoint x="-8" y="-15" as="offset" />
          </mxGeometry>
        </mxCell>
        <mxCell id="WLESVQoLexFltELfVNAb-14" value="" style="endArrow=classic;html=1;rounded=0;exitX=0.442;exitY=1;exitDx=0;exitDy=0;exitPerimeter=0;entryX=0.5;entryY=0;entryDx=0;entryDy=0;" parent="1" source="WLESVQoLexFltELfVNAb-4" target="WLESVQoLexFltELfVNAb-15" edge="1">
          <mxGeometry width="50" height="50" relative="1" as="geometry">
            <mxPoint x="60" y="520" as="sourcePoint" />
            <mxPoint x="93" y="500" as="targetPoint" />
          </mxGeometry>
        </mxCell>
        <mxCell id="WLESVQoLexFltELfVNAb-15" value="1. Display Order?" style="rhombus;whiteSpace=wrap;html=1;" parent="1" vertex="1">
          <mxGeometry x="50" y="510" width="80" height="80" as="geometry" />
        </mxCell>
        <mxCell id="WLESVQoLexFltELfVNAb-16" value="2. Add an order?" style="rhombus;whiteSpace=wrap;html=1;" parent="1" vertex="1">
          <mxGeometry x="200" y="510" width="80" height="80" as="geometry" />
        </mxCell>
        <mxCell id="WLESVQoLexFltELfVNAb-17" value="3. Edit an Order?" style="rhombus;whiteSpace=wrap;html=1;" parent="1" vertex="1">
          <mxGeometry x="350" y="510" width="80" height="80" as="geometry" />
        </mxCell>
        <mxCell id="WLESVQoLexFltELfVNAb-18" value="&lt;font style=&quot;font-size: 11px&quot;&gt;4. Remove an order?&lt;/font&gt;" style="rhombus;whiteSpace=wrap;html=1;" parent="1" vertex="1">
          <mxGeometry x="500" y="505" width="90" height="90" as="geometry" />
        </mxCell>
        <mxCell id="WLESVQoLexFltELfVNAb-19" value="5. Export all data?" style="rhombus;whiteSpace=wrap;html=1;" parent="1" vertex="1">
          <mxGeometry x="640" y="505" width="90" height="90" as="geometry" />
        </mxCell>
        <mxCell id="WLESVQoLexFltELfVNAb-22" value="" style="endArrow=classic;html=1;rounded=0;exitX=1;exitY=0.5;exitDx=0;exitDy=0;entryX=0;entryY=0.5;entryDx=0;entryDy=0;" parent="1" source="WLESVQoLexFltELfVNAb-15" target="WLESVQoLexFltELfVNAb-16" edge="1">
          <mxGeometry relative="1" as="geometry">
            <mxPoint x="120" y="590" as="sourcePoint" />
            <mxPoint x="220" y="590" as="targetPoint" />
          </mxGeometry>
        </mxCell>
        <mxCell id="WLESVQoLexFltELfVNAb-23" value="False" style="edgeLabel;resizable=0;html=1;align=center;verticalAlign=middle;" parent="WLESVQoLexFltELfVNAb-22" connectable="0" vertex="1">
          <mxGeometry relative="1" as="geometry">
            <mxPoint x="-5" y="-10" as="offset" />
          </mxGeometry>
        </mxCell>
        <mxCell id="WLESVQoLexFltELfVNAb-24" value="" style="endArrow=classic;html=1;rounded=0;exitX=1;exitY=0.5;exitDx=0;exitDy=0;entryX=0;entryY=0.5;entryDx=0;entryDy=0;" parent="1" source="WLESVQoLexFltELfVNAb-16" target="WLESVQoLexFltELfVNAb-17" edge="1">
          <mxGeometry relative="1" as="geometry">
            <mxPoint x="280" y="610" as="sourcePoint" />
            <mxPoint x="380" y="610" as="targetPoint" />
            <Array as="points">
              <mxPoint x="320" y="550" />
            </Array>
          </mxGeometry>
        </mxCell>
        <mxCell id="WLESVQoLexFltELfVNAb-25" value="False" style="edgeLabel;resizable=0;html=1;align=center;verticalAlign=middle;" parent="WLESVQoLexFltELfVNAb-24" connectable="0" vertex="1">
          <mxGeometry relative="1" as="geometry">
            <mxPoint y="-10" as="offset" />
          </mxGeometry>
        </mxCell>
        <mxCell id="WLESVQoLexFltELfVNAb-28" value="" style="endArrow=classic;html=1;rounded=0;exitX=1;exitY=0.5;exitDx=0;exitDy=0;entryX=0;entryY=0.5;entryDx=0;entryDy=0;" parent="1" source="WLESVQoLexFltELfVNAb-17" target="WLESVQoLexFltELfVNAb-18" edge="1">
          <mxGeometry relative="1" as="geometry">
            <mxPoint x="440" y="580" as="sourcePoint" />
            <mxPoint x="540" y="580" as="targetPoint" />
          </mxGeometry>
        </mxCell>
        <mxCell id="WLESVQoLexFltELfVNAb-29" value="False" style="edgeLabel;resizable=0;html=1;align=center;verticalAlign=middle;" parent="WLESVQoLexFltELfVNAb-28" connectable="0" vertex="1">
          <mxGeometry relative="1" as="geometry">
            <mxPoint y="-10" as="offset" />
          </mxGeometry>
        </mxCell>
        <mxCell id="WLESVQoLexFltELfVNAb-30" value="" style="endArrow=classic;html=1;rounded=0;exitX=1;exitY=0.5;exitDx=0;exitDy=0;entryX=0;entryY=0.5;entryDx=0;entryDy=0;" parent="1" source="WLESVQoLexFltELfVNAb-18" target="WLESVQoLexFltELfVNAb-19" edge="1">
          <mxGeometry relative="1" as="geometry">
            <mxPoint x="590" y="549.5" as="sourcePoint" />
            <mxPoint x="660" y="549.5" as="targetPoint" />
          </mxGeometry>
        </mxCell>
        <mxCell id="WLESVQoLexFltELfVNAb-31" value="False" style="edgeLabel;resizable=0;html=1;align=center;verticalAlign=middle;" parent="WLESVQoLexFltELfVNAb-30" connectable="0" vertex="1">
          <mxGeometry relative="1" as="geometry">
            <mxPoint y="-10" as="offset" />
          </mxGeometry>
        </mxCell>
        <mxCell id="WLESVQoLexFltELfVNAb-32" value="6. Exit?" style="rhombus;whiteSpace=wrap;html=1;" parent="1" vertex="1">
          <mxGeometry x="800" y="510" width="80" height="80" as="geometry" />
        </mxCell>
        <mxCell id="WLESVQoLexFltELfVNAb-33" value="" style="endArrow=classic;html=1;rounded=0;exitX=1;exitY=0.5;exitDx=0;exitDy=0;entryX=0;entryY=0.5;entryDx=0;entryDy=0;" parent="1" source="WLESVQoLexFltELfVNAb-19" target="WLESVQoLexFltELfVNAb-32" edge="1">
          <mxGeometry relative="1" as="geometry">
            <mxPoint x="740" y="610" as="sourcePoint" />
            <mxPoint x="840" y="610" as="targetPoint" />
          </mxGeometry>
        </mxCell>
        <mxCell id="WLESVQoLexFltELfVNAb-34" value="False" style="edgeLabel;resizable=0;html=1;align=center;verticalAlign=middle;" parent="WLESVQoLexFltELfVNAb-33" connectable="0" vertex="1">
          <mxGeometry relative="1" as="geometry">
            <mxPoint y="-10" as="offset" />
          </mxGeometry>
        </mxCell>
        <mxCell id="WLESVQoLexFltELfVNAb-38" value="" style="endArrow=classic;html=1;rounded=0;exitX=1;exitY=0.5;exitDx=0;exitDy=0;entryX=0;entryY=0.5;entryDx=0;entryDy=0;" parent="1" source="WLESVQoLexFltELfVNAb-32" target="WLESVQoLexFltELfVNAb-41" edge="1">
          <mxGeometry relative="1" as="geometry">
            <mxPoint x="890" y="550" as="sourcePoint" />
            <mxPoint x="990" y="550" as="targetPoint" />
          </mxGeometry>
        </mxCell>
        <mxCell id="WLESVQoLexFltELfVNAb-39" value="False" style="edgeLabel;resizable=0;html=1;align=center;verticalAlign=middle;" parent="WLESVQoLexFltELfVNAb-38" connectable="0" vertex="1">
          <mxGeometry relative="1" as="geometry">
            <mxPoint y="-10" as="offset" />
          </mxGeometry>
        </mxCell>
        <mxCell id="WLESVQoLexFltELfVNAb-40" value="" style="endArrow=classic;html=1;rounded=0;exitX=0.5;exitY=0;exitDx=0;exitDy=0;entryX=1;entryY=0.5;entryDx=0;entryDy=0;" parent="1" source="WLESVQoLexFltELfVNAb-32" target="WLESVQoLexFltELfVNAb-6" edge="1">
          <mxGeometry width="50" height="50" relative="1" as="geometry">
            <mxPoint x="840" y="475" as="sourcePoint" />
            <mxPoint x="840" y="390" as="targetPoint" />
            <Array as="points">
              <mxPoint x="840" y="395" />
            </Array>
          </mxGeometry>
        </mxCell>
        <mxCell id="WLESVQoLexFltELfVNAb-48" value="True" style="edgeLabel;html=1;align=center;verticalAlign=middle;resizable=0;points=[];fontSize=11;" parent="WLESVQoLexFltELfVNAb-40" vertex="1" connectable="0">
          <mxGeometry x="-0.2404" y="3" relative="1" as="geometry">
            <mxPoint x="-46" y="-18" as="offset" />
          </mxGeometry>
        </mxCell>
        <mxCell id="WLESVQoLexFltELfVNAb-41" value="&lt;font style=&quot;font-size: 11px&quot;&gt;Error: User did not pick selections 1-6&lt;/font&gt;" style="shape=parallelogram;perimeter=parallelogramPerimeter;whiteSpace=wrap;html=1;fixedSize=1;" parent="1" vertex="1">
          <mxGeometry x="950" y="515" width="140" height="70" as="geometry" />
        </mxCell>
        <mxCell id="WLESVQoLexFltELfVNAb-44" value="" style="endArrow=classic;html=1;rounded=0;fontSize=11;exitX=0.5;exitY=0;exitDx=0;exitDy=0;entryX=0.5;entryY=0;entryDx=0;entryDy=0;" parent="1" source="WLESVQoLexFltELfVNAb-41" target="WLESVQoLexFltELfVNAb-4" edge="1">
          <mxGeometry width="50" height="50" relative="1" as="geometry">
            <mxPoint x="1010" y="460" as="sourcePoint" />
            <mxPoint x="80" y="150" as="targetPoint" />
            <Array as="points">
              <mxPoint x="1020" y="140" />
              <mxPoint x="100" y="140" />
            </Array>
          </mxGeometry>
        </mxCell>
        <mxCell id="WLESVQoLexFltELfVNAb-46" value="" style="endArrow=classic;html=1;rounded=0;fontSize=11;exitX=0;exitY=0.5;exitDx=0;exitDy=0;entryX=1;entryY=0.5;entryDx=0;entryDy=0;" parent="1" source="WLESVQoLexFltELfVNAb-15" target="WLESVQoLexFltELfVNAb-49" edge="1">
          <mxGeometry relative="1" as="geometry">
            <mxPoint x="-130" y="549.5" as="sourcePoint" />
            <mxPoint x="-70" y="550" as="targetPoint" />
          </mxGeometry>
        </mxCell>
        <mxCell id="WLESVQoLexFltELfVNAb-47" value="True" style="edgeLabel;resizable=0;html=1;align=center;verticalAlign=middle;fontSize=11;" parent="WLESVQoLexFltELfVNAb-46" connectable="0" vertex="1">
          <mxGeometry relative="1" as="geometry">
            <mxPoint y="-10" as="offset" />
          </mxGeometry>
        </mxCell>
        <mxCell id="WLESVQoLexFltELfVNAb-49" value="Prompt user for date" style="shape=parallelogram;perimeter=parallelogramPerimeter;whiteSpace=wrap;html=1;fixedSize=1;fontSize=11;" parent="1" vertex="1">
          <mxGeometry x="-220" y="515" width="140" height="70" as="geometry" />
        </mxCell>
        <mxCell id="WLESVQoLexFltELfVNAb-50" value="Order exists for date?" style="rhombus;whiteSpace=wrap;html=1;fontSize=11;" parent="1" vertex="1">
          <mxGeometry x="-380" y="497.5" width="105" height="105" as="geometry" />
        </mxCell>
        <mxCell id="WLESVQoLexFltELfVNAb-51" value="" style="endArrow=classic;html=1;rounded=0;fontSize=11;exitX=0;exitY=0.5;exitDx=0;exitDy=0;entryX=1;entryY=0.5;entryDx=0;entryDy=0;" parent="1" source="WLESVQoLexFltELfVNAb-49" target="WLESVQoLexFltELfVNAb-50" edge="1">
          <mxGeometry width="50" height="50" relative="1" as="geometry">
            <mxPoint x="-250" y="550" as="sourcePoint" />
            <mxPoint x="-200" y="490" as="targetPoint" />
          </mxGeometry>
        </mxCell>
        <mxCell id="WLESVQoLexFltELfVNAb-52" value="" style="endArrow=classic;html=1;rounded=0;fontSize=11;exitX=0.5;exitY=1;exitDx=0;exitDy=0;entryX=0.5;entryY=0;entryDx=0;entryDy=0;" parent="1" source="WLESVQoLexFltELfVNAb-50" target="WLESVQoLexFltELfVNAb-61" edge="1">
          <mxGeometry relative="1" as="geometry">
            <mxPoint x="-330" y="640" as="sourcePoint" />
            <mxPoint x="-330" y="680" as="targetPoint" />
          </mxGeometry>
        </mxCell>
        <mxCell id="WLESVQoLexFltELfVNAb-53" value="True" style="edgeLabel;resizable=0;html=1;align=center;verticalAlign=middle;fontSize=11;" parent="WLESVQoLexFltELfVNAb-52" connectable="0" vertex="1">
          <mxGeometry relative="1" as="geometry">
            <mxPoint x="19" as="offset" />
          </mxGeometry>
        </mxCell>
        <mxCell id="WLESVQoLexFltELfVNAb-56" value="Error: No order exists &lt;br&gt;for this date" style="shape=parallelogram;perimeter=parallelogramPerimeter;whiteSpace=wrap;html=1;fixedSize=1;fontSize=11;" parent="1" vertex="1">
          <mxGeometry x="-370" y="350" width="140" height="80" as="geometry" />
        </mxCell>
        <mxCell id="WLESVQoLexFltELfVNAb-58" value="" style="endArrow=classic;html=1;rounded=0;fontSize=11;exitX=0.5;exitY=0;exitDx=0;exitDy=0;entryX=0.307;entryY=1.013;entryDx=0;entryDy=0;entryPerimeter=0;" parent="1" source="WLESVQoLexFltELfVNAb-50" target="WLESVQoLexFltELfVNAb-56" edge="1">
          <mxGeometry relative="1" as="geometry">
            <mxPoint x="-290" y="460" as="sourcePoint" />
            <mxPoint x="-190" y="460" as="targetPoint" />
          </mxGeometry>
        </mxCell>
        <mxCell id="WLESVQoLexFltELfVNAb-59" value="False" style="edgeLabel;resizable=0;html=1;align=center;verticalAlign=middle;fontSize=11;" parent="WLESVQoLexFltELfVNAb-58" connectable="0" vertex="1">
          <mxGeometry relative="1" as="geometry">
            <mxPoint x="17" as="offset" />
          </mxGeometry>
        </mxCell>
        <mxCell id="WLESVQoLexFltELfVNAb-60" value="" style="endArrow=classic;html=1;rounded=0;fontSize=11;exitX=0.943;exitY=0.588;exitDx=0;exitDy=0;exitPerimeter=0;entryX=0;entryY=0.5;entryDx=0;entryDy=0;" parent="1" source="WLESVQoLexFltELfVNAb-56" target="WLESVQoLexFltELfVNAb-4" edge="1">
          <mxGeometry width="50" height="50" relative="1" as="geometry">
            <mxPoint x="-175" y="390" as="sourcePoint" />
            <mxPoint x="-125" y="340" as="targetPoint" />
          </mxGeometry>
        </mxCell>
        <mxCell id="WLESVQoLexFltELfVNAb-61" value="Display orders &lt;br&gt;for date" style="shape=parallelogram;perimeter=parallelogramPerimeter;whiteSpace=wrap;html=1;fixedSize=1;fontSize=11;" parent="1" vertex="1">
          <mxGeometry x="-387.5" y="680" width="120" height="60" as="geometry" />
        </mxCell>
        <mxCell id="WLESVQoLexFltELfVNAb-62" value="" style="endArrow=classic;html=1;rounded=0;fontSize=11;exitX=0.5;exitY=1;exitDx=0;exitDy=0;" parent="1" source="WLESVQoLexFltELfVNAb-16" edge="1">
          <mxGeometry relative="1" as="geometry">
            <mxPoint x="240" y="620" as="sourcePoint" />
            <mxPoint x="240" y="640" as="targetPoint" />
          </mxGeometry>
        </mxCell>
        <mxCell id="WLESVQoLexFltELfVNAb-63" value="True" style="edgeLabel;resizable=0;html=1;align=center;verticalAlign=middle;fontSize=11;" parent="WLESVQoLexFltELfVNAb-62" connectable="0" vertex="1">
          <mxGeometry relative="1" as="geometry">
            <mxPoint x="30" as="offset" />
          </mxGeometry>
        </mxCell>
        <mxCell id="WLESVQoLexFltELfVNAb-64" value="Prompt for &lt;br&gt;order date" style="shape=parallelogram;perimeter=parallelogramPerimeter;whiteSpace=wrap;html=1;fixedSize=1;fontSize=11;" parent="1" vertex="1">
          <mxGeometry x="180" y="645" width="120" height="60" as="geometry" />
        </mxCell>
        <mxCell id="WLESVQoLexFltELfVNAb-65" value="Order date &amp;gt; todays date?" style="rhombus;whiteSpace=wrap;html=1;fontSize=11;" parent="1" vertex="1">
          <mxGeometry x="45" y="630" width="90" height="90" as="geometry" />
        </mxCell>
        <mxCell id="WLESVQoLexFltELfVNAb-66" value="Prompt for &lt;br&gt;customer name" style="shape=parallelogram;perimeter=parallelogramPerimeter;whiteSpace=wrap;html=1;fixedSize=1;fontSize=11;" parent="1" vertex="1">
          <mxGeometry x="30" y="780" width="120" height="60" as="geometry" />
        </mxCell>
        <mxCell id="WLESVQoLexFltELfVNAb-67" value="" style="endArrow=classic;html=1;rounded=0;fontSize=11;entryX=1;entryY=0.5;entryDx=0;entryDy=0;exitX=0;exitY=0.5;exitDx=0;exitDy=0;" parent="1" source="WLESVQoLexFltELfVNAb-64" target="WLESVQoLexFltELfVNAb-65" edge="1">
          <mxGeometry width="50" height="50" relative="1" as="geometry">
            <mxPoint x="110" y="720" as="sourcePoint" />
            <mxPoint x="160" y="670" as="targetPoint" />
          </mxGeometry>
        </mxCell>
        <mxCell id="WLESVQoLexFltELfVNAb-68" value="" style="endArrow=classic;html=1;rounded=0;fontSize=11;exitX=0.5;exitY=1;exitDx=0;exitDy=0;entryX=0.5;entryY=0;entryDx=0;entryDy=0;" parent="1" source="WLESVQoLexFltELfVNAb-65" target="WLESVQoLexFltELfVNAb-66" edge="1">
          <mxGeometry relative="1" as="geometry">
            <mxPoint x="60" y="740" as="sourcePoint" />
            <mxPoint x="160" y="740" as="targetPoint" />
          </mxGeometry>
        </mxCell>
        <mxCell id="WLESVQoLexFltELfVNAb-69" value="True" style="edgeLabel;resizable=0;html=1;align=center;verticalAlign=middle;fontSize=11;" parent="WLESVQoLexFltELfVNAb-68" connectable="0" vertex="1">
          <mxGeometry relative="1" as="geometry">
            <mxPoint y="-10" as="offset" />
          </mxGeometry>
        </mxCell>
        <mxCell id="WLESVQoLexFltELfVNAb-70" value="" style="endArrow=classic;html=1;rounded=0;fontSize=11;exitX=0;exitY=0.5;exitDx=0;exitDy=0;entryX=1;entryY=0.5;entryDx=0;entryDy=0;" parent="1" source="WLESVQoLexFltELfVNAb-65" target="WLESVQoLexFltELfVNAb-72" edge="1">
          <mxGeometry relative="1" as="geometry">
            <mxPoint x="-70" y="720" as="sourcePoint" />
            <mxPoint x="30" y="720" as="targetPoint" />
          </mxGeometry>
        </mxCell>
        <mxCell id="WLESVQoLexFltELfVNAb-71" value="False" style="edgeLabel;resizable=0;html=1;align=center;verticalAlign=middle;fontSize=11;" parent="WLESVQoLexFltELfVNAb-70" connectable="0" vertex="1">
          <mxGeometry relative="1" as="geometry">
            <mxPoint y="-10" as="offset" />
          </mxGeometry>
        </mxCell>
        <mxCell id="WLESVQoLexFltELfVNAb-72" value="Error: Must pick &lt;br&gt;future date" style="shape=parallelogram;perimeter=parallelogramPerimeter;whiteSpace=wrap;html=1;fixedSize=1;fontSize=11;" parent="1" vertex="1">
          <mxGeometry x="-140" y="645" width="120" height="60" as="geometry" />
        </mxCell>
        <mxCell id="WLESVQoLexFltELfVNAb-73" value="" style="endArrow=classic;html=1;rounded=0;fontSize=11;exitX=0.5;exitY=0;exitDx=0;exitDy=0;" parent="1" source="WLESVQoLexFltELfVNAb-72" edge="1">
          <mxGeometry width="50" height="50" relative="1" as="geometry">
            <mxPoint x="-60" y="620" as="sourcePoint" />
            <mxPoint x="240" y="610" as="targetPoint" />
            <Array as="points">
              <mxPoint x="-80" y="610" />
            </Array>
          </mxGeometry>
        </mxCell>
        <mxCell id="WLESVQoLexFltELfVNAb-74" value="blank &lt;br&gt;or special characters?" style="rhombus;whiteSpace=wrap;html=1;fontSize=11;" parent="1" vertex="1">
          <mxGeometry x="-150" y="760" width="100" height="100" as="geometry" />
        </mxCell>
        <mxCell id="WLESVQoLexFltELfVNAb-75" value="" style="endArrow=classic;html=1;rounded=0;fontSize=11;entryX=1;entryY=0.5;entryDx=0;entryDy=0;exitX=0;exitY=0.5;exitDx=0;exitDy=0;" parent="1" source="WLESVQoLexFltELfVNAb-66" target="WLESVQoLexFltELfVNAb-74" edge="1">
          <mxGeometry width="50" height="50" relative="1" as="geometry">
            <mxPoint x="-60" y="880" as="sourcePoint" />
            <mxPoint x="-10" y="830" as="targetPoint" />
          </mxGeometry>
        </mxCell>
        <mxCell id="WLESVQoLexFltELfVNAb-76" value="" style="endArrow=classic;html=1;rounded=0;fontSize=11;exitX=0;exitY=0.5;exitDx=0;exitDy=0;entryX=1;entryY=0.5;entryDx=0;entryDy=0;" parent="1" source="WLESVQoLexFltELfVNAb-74" target="WLESVQoLexFltELfVNAb-78" edge="1">
          <mxGeometry relative="1" as="geometry">
            <mxPoint x="-290" y="839" as="sourcePoint" />
            <mxPoint x="-200" y="810" as="targetPoint" />
          </mxGeometry>
        </mxCell>
        <mxCell id="WLESVQoLexFltELfVNAb-77" value="True" style="edgeLabel;resizable=0;html=1;align=center;verticalAlign=middle;fontSize=11;" parent="WLESVQoLexFltELfVNAb-76" connectable="0" vertex="1">
          <mxGeometry relative="1" as="geometry">
            <mxPoint x="5" y="-10" as="offset" />
          </mxGeometry>
        </mxCell>
        <mxCell id="WLESVQoLexFltELfVNAb-78" value="Error: Not a &lt;br&gt;valid name" style="shape=parallelogram;perimeter=parallelogramPerimeter;whiteSpace=wrap;html=1;fixedSize=1;fontSize=11;" parent="1" vertex="1">
          <mxGeometry x="-310" y="780" width="120" height="60" as="geometry" />
        </mxCell>
        <mxCell id="WLESVQoLexFltELfVNAb-79" value="" style="endArrow=classic;html=1;rounded=0;fontSize=11;exitX=0.5;exitY=0;exitDx=0;exitDy=0;" parent="1" source="WLESVQoLexFltELfVNAb-78" edge="1">
          <mxGeometry width="50" height="50" relative="1" as="geometry">
            <mxPoint x="-250" y="755" as="sourcePoint" />
            <mxPoint x="-80" y="620" as="targetPoint" />
            <Array as="points">
              <mxPoint x="-250" y="620" />
            </Array>
          </mxGeometry>
        </mxCell>
        <mxCell id="WLESVQoLexFltELfVNAb-81" value="" style="endArrow=classic;html=1;rounded=0;fontSize=11;exitX=0.5;exitY=1;exitDx=0;exitDy=0;entryX=0.575;entryY=-0.067;entryDx=0;entryDy=0;entryPerimeter=0;" parent="1" source="WLESVQoLexFltELfVNAb-74" target="WLESVQoLexFltELfVNAb-83" edge="1">
          <mxGeometry relative="1" as="geometry">
            <mxPoint x="-120" y="895" as="sourcePoint" />
            <mxPoint x="-100" y="920" as="targetPoint" />
          </mxGeometry>
        </mxCell>
        <mxCell id="WLESVQoLexFltELfVNAb-82" value="False" style="edgeLabel;resizable=0;html=1;align=center;verticalAlign=middle;fontSize=11;" parent="WLESVQoLexFltELfVNAb-81" connectable="0" vertex="1">
          <mxGeometry relative="1" as="geometry">
            <mxPoint x="20" as="offset" />
          </mxGeometry>
        </mxCell>
        <mxCell id="WLESVQoLexFltELfVNAb-83" value="Prompt for state" style="shape=parallelogram;perimeter=parallelogramPerimeter;whiteSpace=wrap;html=1;fixedSize=1;fontSize=11;" parent="1" vertex="1">
          <mxGeometry x="-170" y="920" width="120" height="60" as="geometry" />
        </mxCell>
        <mxCell id="WLESVQoLexFltELfVNAb-84" value="is entered &lt;br&gt;state present within tax file?" style="rhombus;whiteSpace=wrap;html=1;fontSize=11;" parent="1" vertex="1">
          <mxGeometry x="-385" y="1005" width="110" height="110" as="geometry" />
        </mxCell>
        <mxCell id="WLESVQoLexFltELfVNAb-85" value="Check against tax file for state entered" style="rounded=0;whiteSpace=wrap;html=1;fontSize=11;" parent="1" vertex="1">
          <mxGeometry x="-180" y="1030" width="120" height="60" as="geometry" />
        </mxCell>
        <mxCell id="WLESVQoLexFltELfVNAb-86" value="" style="endArrow=classic;html=1;rounded=0;fontSize=11;exitX=0.5;exitY=1;exitDx=0;exitDy=0;entryX=0.567;entryY=-0.017;entryDx=0;entryDy=0;entryPerimeter=0;" parent="1" source="WLESVQoLexFltELfVNAb-83" target="WLESVQoLexFltELfVNAb-85" edge="1">
          <mxGeometry width="50" height="50" relative="1" as="geometry">
            <mxPoint x="-105" y="1020" as="sourcePoint" />
            <mxPoint x="-55" y="970" as="targetPoint" />
          </mxGeometry>
        </mxCell>
        <mxCell id="WLESVQoLexFltELfVNAb-87" value="" style="endArrow=classic;html=1;rounded=0;fontSize=11;entryX=1;entryY=0.5;entryDx=0;entryDy=0;exitX=0;exitY=0.5;exitDx=0;exitDy=0;" parent="1" source="WLESVQoLexFltELfVNAb-85" target="WLESVQoLexFltELfVNAb-84" edge="1">
          <mxGeometry width="50" height="50" relative="1" as="geometry">
            <mxPoint x="-290" y="1120" as="sourcePoint" />
            <mxPoint x="-240" y="1070" as="targetPoint" />
          </mxGeometry>
        </mxCell>
        <mxCell id="WLESVQoLexFltELfVNAb-88" value="" style="endArrow=classic;html=1;rounded=0;fontSize=11;exitX=0.5;exitY=1;exitDx=0;exitDy=0;entryX=0.5;entryY=0;entryDx=0;entryDy=0;" parent="1" source="WLESVQoLexFltELfVNAb-84" target="WLESVQoLexFltELfVNAb-94" edge="1">
          <mxGeometry relative="1" as="geometry">
            <mxPoint x="-350" y="1160" as="sourcePoint" />
            <mxPoint x="-330" y="1180" as="targetPoint" />
          </mxGeometry>
        </mxCell>
        <mxCell id="WLESVQoLexFltELfVNAb-89" value="True" style="edgeLabel;resizable=0;html=1;align=center;verticalAlign=middle;fontSize=11;" parent="WLESVQoLexFltELfVNAb-88" connectable="0" vertex="1">
          <mxGeometry relative="1" as="geometry">
            <mxPoint x="20" y="-10" as="offset" />
          </mxGeometry>
        </mxCell>
        <mxCell id="WLESVQoLexFltELfVNAb-90" value="" style="endArrow=classic;html=1;rounded=0;fontSize=11;exitX=0;exitY=0.5;exitDx=0;exitDy=0;" parent="1" source="WLESVQoLexFltELfVNAb-84" target="WLESVQoLexFltELfVNAb-92" edge="1">
          <mxGeometry relative="1" as="geometry">
            <mxPoint x="-540" y="1070" as="sourcePoint" />
            <mxPoint x="-470" y="1060" as="targetPoint" />
          </mxGeometry>
        </mxCell>
        <mxCell id="WLESVQoLexFltELfVNAb-91" value="False" style="edgeLabel;resizable=0;html=1;align=center;verticalAlign=middle;fontSize=11;" parent="WLESVQoLexFltELfVNAb-90" connectable="0" vertex="1">
          <mxGeometry relative="1" as="geometry">
            <mxPoint y="-20" as="offset" />
          </mxGeometry>
        </mxCell>
        <mxCell id="WH_qL8bAJBr36jCPPk6z-4" value="False" style="edgeLabel;resizable=0;html=1;align=center;verticalAlign=middle;fontSize=11;" parent="WLESVQoLexFltELfVNAb-90" connectable="0" vertex="1">
          <mxGeometry relative="1" as="geometry">
            <mxPoint y="-20" as="offset" />
          </mxGeometry>
        </mxCell>
        <mxCell id="WLESVQoLexFltELfVNAb-92" value="Error: Cannot &lt;br&gt;sell &lt;br&gt;as state not&lt;br&gt;&amp;nbsp;in tax file" style="shape=parallelogram;perimeter=parallelogramPerimeter;whiteSpace=wrap;html=1;fixedSize=1;fontSize=11;" parent="1" vertex="1">
          <mxGeometry x="-580" y="1030" width="120" height="60" as="geometry" />
        </mxCell>
        <mxCell id="WLESVQoLexFltELfVNAb-93" value="" style="endArrow=classic;html=1;rounded=0;fontSize=11;exitX=0.567;exitY=-0.017;exitDx=0;exitDy=0;exitPerimeter=0;" parent="1" source="WLESVQoLexFltELfVNAb-92" edge="1">
          <mxGeometry width="50" height="50" relative="1" as="geometry">
            <mxPoint x="-480" y="980" as="sourcePoint" />
            <mxPoint x="-250" y="760" as="targetPoint" />
            <Array as="points">
              <mxPoint x="-512" y="760" />
            </Array>
          </mxGeometry>
        </mxCell>
        <mxCell id="WLESVQoLexFltELfVNAb-94" value="Display list &lt;br&gt;of products" style="shape=parallelogram;perimeter=parallelogramPerimeter;whiteSpace=wrap;html=1;fixedSize=1;fontSize=11;" parent="1" vertex="1">
          <mxGeometry x="-390" y="1190" width="120" height="60" as="geometry" />
        </mxCell>
        <mxCell id="WLESVQoLexFltELfVNAb-95" value="Prompt user for &lt;br&gt;product selection" style="shape=parallelogram;perimeter=parallelogramPerimeter;whiteSpace=wrap;html=1;fixedSize=1;fontSize=11;" parent="1" vertex="1">
          <mxGeometry x="-600" y="1190" width="120" height="60" as="geometry" />
        </mxCell>
        <mxCell id="WLESVQoLexFltELfVNAb-96" value="" style="endArrow=classic;html=1;rounded=0;fontSize=11;exitX=0;exitY=0.5;exitDx=0;exitDy=0;entryX=1;entryY=0.5;entryDx=0;entryDy=0;" parent="1" source="WLESVQoLexFltELfVNAb-94" target="WLESVQoLexFltELfVNAb-95" edge="1">
          <mxGeometry width="50" height="50" relative="1" as="geometry">
            <mxPoint x="-460" y="1210" as="sourcePoint" />
            <mxPoint x="-410" y="1160" as="targetPoint" />
          </mxGeometry>
        </mxCell>
        <mxCell id="WLESVQoLexFltELfVNAb-97" value="valid &lt;br&gt;selection?" style="rhombus;whiteSpace=wrap;html=1;fontSize=11;" parent="1" vertex="1">
          <mxGeometry x="-750" y="1180" width="80" height="80" as="geometry" />
        </mxCell>
        <mxCell id="WLESVQoLexFltELfVNAb-98" value="display invalid &lt;br&gt;selection" style="shape=parallelogram;perimeter=parallelogramPerimeter;whiteSpace=wrap;html=1;fixedSize=1;fontSize=11;" parent="1" vertex="1">
          <mxGeometry x="-770" y="1320" width="120" height="60" as="geometry" />
        </mxCell>
        <mxCell id="WLESVQoLexFltELfVNAb-101" value="" style="endArrow=classic;html=1;rounded=0;fontSize=11;exitX=0;exitY=0.5;exitDx=0;exitDy=0;entryX=1;entryY=0.5;entryDx=0;entryDy=0;" parent="1" source="WLESVQoLexFltELfVNAb-97" target="WLESVQoLexFltELfVNAb-107" edge="1">
          <mxGeometry relative="1" as="geometry">
            <mxPoint x="-910" y="1249" as="sourcePoint" />
            <mxPoint x="-860" y="1220" as="targetPoint" />
          </mxGeometry>
        </mxCell>
        <mxCell id="WLESVQoLexFltELfVNAb-102" value="True" style="edgeLabel;resizable=0;html=1;align=center;verticalAlign=middle;fontSize=11;" parent="WLESVQoLexFltELfVNAb-101" connectable="0" vertex="1">
          <mxGeometry relative="1" as="geometry">
            <mxPoint y="-10" as="offset" />
          </mxGeometry>
        </mxCell>
        <mxCell id="WLESVQoLexFltELfVNAb-103" value="" style="endArrow=classic;html=1;rounded=0;fontSize=11;exitX=0.5;exitY=1;exitDx=0;exitDy=0;entryX=0.5;entryY=0;entryDx=0;entryDy=0;" parent="1" source="WLESVQoLexFltELfVNAb-97" target="WLESVQoLexFltELfVNAb-98" edge="1">
          <mxGeometry relative="1" as="geometry">
            <mxPoint x="-710" y="1274" as="sourcePoint" />
            <mxPoint x="-610" y="1274" as="targetPoint" />
          </mxGeometry>
        </mxCell>
        <mxCell id="WLESVQoLexFltELfVNAb-104" value="False" style="edgeLabel;resizable=0;html=1;align=center;verticalAlign=middle;fontSize=11;" parent="WLESVQoLexFltELfVNAb-103" connectable="0" vertex="1">
          <mxGeometry relative="1" as="geometry">
            <mxPoint x="20" as="offset" />
          </mxGeometry>
        </mxCell>
        <mxCell id="WLESVQoLexFltELfVNAb-105" value="" style="endArrow=classic;html=1;rounded=0;fontSize=11;exitX=1;exitY=0.5;exitDx=0;exitDy=0;entryX=0.45;entryY=1.05;entryDx=0;entryDy=0;entryPerimeter=0;" parent="1" source="WLESVQoLexFltELfVNAb-98" target="WLESVQoLexFltELfVNAb-95" edge="1">
          <mxGeometry width="50" height="50" relative="1" as="geometry">
            <mxPoint x="-630" y="1350" as="sourcePoint" />
            <mxPoint x="-550" y="1350" as="targetPoint" />
            <Array as="points">
              <mxPoint x="-550" y="1350" />
            </Array>
          </mxGeometry>
        </mxCell>
        <mxCell id="WLESVQoLexFltELfVNAb-106" value="" style="endArrow=classic;html=1;rounded=0;fontSize=11;exitX=0;exitY=0.5;exitDx=0;exitDy=0;entryX=1;entryY=0.5;entryDx=0;entryDy=0;" parent="1" source="WLESVQoLexFltELfVNAb-95" target="WLESVQoLexFltELfVNAb-97" edge="1">
          <mxGeometry width="50" height="50" relative="1" as="geometry">
            <mxPoint x="-650" y="1200" as="sourcePoint" />
            <mxPoint x="-600" y="1150" as="targetPoint" />
          </mxGeometry>
        </mxCell>
        <mxCell id="WLESVQoLexFltELfVNAb-107" value="Prompt for area" style="shape=parallelogram;perimeter=parallelogramPerimeter;whiteSpace=wrap;html=1;fixedSize=1;fontSize=11;" parent="1" vertex="1">
          <mxGeometry x="-980" y="1190" width="120" height="60" as="geometry" />
        </mxCell>
        <mxCell id="WLESVQoLexFltELfVNAb-108" value="minimum &lt;br&gt;area 100?&amp;nbsp;" style="rhombus;whiteSpace=wrap;html=1;fontSize=11;" parent="1" vertex="1">
          <mxGeometry x="-960" y="1030" width="80" height="80" as="geometry" />
        </mxCell>
        <mxCell id="WLESVQoLexFltELfVNAb-109" value="" style="endArrow=classic;html=1;rounded=0;fontSize=11;exitX=0.5;exitY=0;exitDx=0;exitDy=0;entryX=0.5;entryY=1;entryDx=0;entryDy=0;" parent="1" source="WLESVQoLexFltELfVNAb-107" target="WLESVQoLexFltELfVNAb-108" edge="1">
          <mxGeometry width="50" height="50" relative="1" as="geometry">
            <mxPoint x="-920" y="1160" as="sourcePoint" />
            <mxPoint x="-920" y="1080" as="targetPoint" />
          </mxGeometry>
        </mxCell>
        <mxCell id="WLESVQoLexFltELfVNAb-110" value="" style="endArrow=classic;html=1;rounded=0;fontSize=11;exitX=0.5;exitY=0;exitDx=0;exitDy=0;" parent="1" source="WLESVQoLexFltELfVNAb-108" edge="1">
          <mxGeometry relative="1" as="geometry">
            <mxPoint x="-930" y="990" as="sourcePoint" />
            <mxPoint x="-920" y="940" as="targetPoint" />
          </mxGeometry>
        </mxCell>
        <mxCell id="WLESVQoLexFltELfVNAb-111" value="false" style="edgeLabel;resizable=0;html=1;align=center;verticalAlign=middle;fontSize=11;" parent="WLESVQoLexFltELfVNAb-110" connectable="0" vertex="1">
          <mxGeometry relative="1" as="geometry">
            <mxPoint x="17" y="9" as="offset" />
          </mxGeometry>
        </mxCell>
        <mxCell id="WLESVQoLexFltELfVNAb-112" value="" style="endArrow=classic;html=1;rounded=0;fontSize=11;exitX=0;exitY=0.5;exitDx=0;exitDy=0;entryX=1;entryY=0.5;entryDx=0;entryDy=0;" parent="1" source="WLESVQoLexFltELfVNAb-108" target="WLESVQoLexFltELfVNAb-116" edge="1">
          <mxGeometry relative="1" as="geometry">
            <mxPoint x="-1090" y="1080" as="sourcePoint" />
            <mxPoint x="-1050" y="1070" as="targetPoint" />
          </mxGeometry>
        </mxCell>
        <mxCell id="WLESVQoLexFltELfVNAb-113" value="True" style="edgeLabel;resizable=0;html=1;align=center;verticalAlign=middle;fontSize=11;" parent="WLESVQoLexFltELfVNAb-112" connectable="0" vertex="1">
          <mxGeometry relative="1" as="geometry">
            <mxPoint x="-10" y="-10" as="offset" />
          </mxGeometry>
        </mxCell>
        <mxCell id="WLESVQoLexFltELfVNAb-114" value="Error: Number &lt;br&gt;entered must &lt;br&gt;be positive and &amp;gt; 100" style="shape=parallelogram;perimeter=parallelogramPerimeter;whiteSpace=wrap;html=1;fixedSize=1;fontSize=11;" parent="1" vertex="1">
          <mxGeometry x="-980" y="870" width="140" height="70" as="geometry" />
        </mxCell>
        <mxCell id="WLESVQoLexFltELfVNAb-115" value="" style="endArrow=classic;html=1;rounded=0;fontSize=11;exitX=0.5;exitY=0;exitDx=0;exitDy=0;" parent="1" source="WLESVQoLexFltELfVNAb-114" edge="1">
          <mxGeometry width="50" height="50" relative="1" as="geometry">
            <mxPoint x="-920" y="840" as="sourcePoint" />
            <mxPoint x="-510" y="770" as="targetPoint" />
            <Array as="points">
              <mxPoint x="-910" y="770" />
            </Array>
          </mxGeometry>
        </mxCell>
        <mxCell id="WLESVQoLexFltELfVNAb-116" value="service: Calculate cost per square foot" style="rounded=0;whiteSpace=wrap;html=1;fontSize=11;" parent="1" vertex="1">
          <mxGeometry x="-1210" y="1040" width="120" height="60" as="geometry" />
        </mxCell>
        <mxCell id="WLESVQoLexFltELfVNAb-117" value="Service: Calculate Labor cost per square foot" style="rounded=0;whiteSpace=wrap;html=1;fontSize=11;" parent="1" vertex="1">
          <mxGeometry x="-1210" y="1200" width="120" height="60" as="geometry" />
        </mxCell>
        <mxCell id="WLESVQoLexFltELfVNAb-125" style="edgeStyle=orthogonalEdgeStyle;rounded=0;orthogonalLoop=1;jettySize=auto;html=1;exitX=0.5;exitY=1;exitDx=0;exitDy=0;entryX=0;entryY=0.5;entryDx=0;entryDy=0;fontSize=11;" parent="1" source="WLESVQoLexFltELfVNAb-118" target="WLESVQoLexFltELfVNAb-119" edge="1">
          <mxGeometry relative="1" as="geometry" />
        </mxCell>
        <mxCell id="WLESVQoLexFltELfVNAb-118" value="Service: Calculate Material cost" style="rounded=0;whiteSpace=wrap;html=1;fontSize=11;" parent="1" vertex="1">
          <mxGeometry x="-1210" y="1350" width="120" height="60" as="geometry" />
        </mxCell>
        <mxCell id="WLESVQoLexFltELfVNAb-126" style="edgeStyle=orthogonalEdgeStyle;rounded=0;orthogonalLoop=1;jettySize=auto;html=1;exitX=1;exitY=0.5;exitDx=0;exitDy=0;fontSize=11;entryX=0;entryY=0.5;entryDx=0;entryDy=0;" parent="1" source="WLESVQoLexFltELfVNAb-119" target="WLESVQoLexFltELfVNAb-120" edge="1">
          <mxGeometry relative="1" as="geometry">
            <mxPoint x="-810" y="1470" as="targetPoint" />
          </mxGeometry>
        </mxCell>
        <mxCell id="WLESVQoLexFltELfVNAb-119" value="Service: Calculate Labor cost" style="rounded=0;whiteSpace=wrap;html=1;fontSize=11;" parent="1" vertex="1">
          <mxGeometry x="-990" y="1440" width="120" height="60" as="geometry" />
        </mxCell>
        <mxCell id="WLESVQoLexFltELfVNAb-127" style="edgeStyle=orthogonalEdgeStyle;rounded=0;orthogonalLoop=1;jettySize=auto;html=1;exitX=1;exitY=0.5;exitDx=0;exitDy=0;fontSize=11;entryX=0;entryY=0.5;entryDx=0;entryDy=0;" parent="1" source="WLESVQoLexFltELfVNAb-120" target="WLESVQoLexFltELfVNAb-121" edge="1">
          <mxGeometry relative="1" as="geometry">
            <mxPoint x="-520" y="1470" as="targetPoint" />
          </mxGeometry>
        </mxCell>
        <mxCell id="WLESVQoLexFltELfVNAb-120" value="Service: Calculate tax" style="rounded=0;whiteSpace=wrap;html=1;fontSize=11;" parent="1" vertex="1">
          <mxGeometry x="-740" y="1440" width="120" height="60" as="geometry" />
        </mxCell>
        <mxCell id="WLESVQoLexFltELfVNAb-121" value="Service: Calculate Total" style="rounded=0;whiteSpace=wrap;html=1;fontSize=11;" parent="1" vertex="1">
          <mxGeometry x="-470" y="1440" width="120" height="60" as="geometry" />
        </mxCell>
        <mxCell id="WLESVQoLexFltELfVNAb-122" value="" style="endArrow=classic;html=1;rounded=0;fontSize=11;exitX=0.5;exitY=1;exitDx=0;exitDy=0;entryX=0.5;entryY=0;entryDx=0;entryDy=0;" parent="1" source="WLESVQoLexFltELfVNAb-116" target="WLESVQoLexFltELfVNAb-117" edge="1">
          <mxGeometry width="50" height="50" relative="1" as="geometry">
            <mxPoint x="-1160" y="1160" as="sourcePoint" />
            <mxPoint x="-1110" y="1110" as="targetPoint" />
          </mxGeometry>
        </mxCell>
        <mxCell id="WLESVQoLexFltELfVNAb-123" value="" style="endArrow=classic;html=1;rounded=0;fontSize=11;exitX=0.5;exitY=1;exitDx=0;exitDy=0;entryX=0.5;entryY=0;entryDx=0;entryDy=0;" parent="1" source="WLESVQoLexFltELfVNAb-117" target="WLESVQoLexFltELfVNAb-118" edge="1">
          <mxGeometry width="50" height="50" relative="1" as="geometry">
            <mxPoint x="-1140" y="1290" as="sourcePoint" />
            <mxPoint x="-1090" y="1240" as="targetPoint" />
          </mxGeometry>
        </mxCell>
        <mxCell id="WLESVQoLexFltELfVNAb-148" style="edgeStyle=orthogonalEdgeStyle;rounded=0;orthogonalLoop=1;jettySize=auto;html=1;exitX=0;exitY=0.5;exitDx=0;exitDy=0;fontSize=11;" parent="1" source="WLESVQoLexFltELfVNAb-128" target="WLESVQoLexFltELfVNAb-147" edge="1">
          <mxGeometry relative="1" as="geometry" />
        </mxCell>
        <mxCell id="WLESVQoLexFltELfVNAb-128" value="Service: Calculate next available order number" style="rounded=0;whiteSpace=wrap;html=1;fontSize=11;" parent="1" vertex="1">
          <mxGeometry x="-1320" y="1560" width="120" height="60" as="geometry" />
        </mxCell>
        <mxCell id="WLESVQoLexFltELfVNAb-133" style="edgeStyle=orthogonalEdgeStyle;rounded=0;orthogonalLoop=1;jettySize=auto;html=1;exitX=0;exitY=0.5;exitDx=0;exitDy=0;entryX=0.938;entryY=0.625;entryDx=0;entryDy=0;entryPerimeter=0;fontSize=11;" parent="1" source="WLESVQoLexFltELfVNAb-130" target="WLESVQoLexFltELfVNAb-132" edge="1">
          <mxGeometry relative="1" as="geometry" />
        </mxCell>
        <mxCell id="WLESVQoLexFltELfVNAb-130" value="Display order&lt;br&gt;&amp;nbsp;summary" style="shape=parallelogram;perimeter=parallelogramPerimeter;whiteSpace=wrap;html=1;fixedSize=1;fontSize=11;" parent="1" vertex="1">
          <mxGeometry x="-470" y="1570" width="120" height="60" as="geometry" />
        </mxCell>
        <mxCell id="WLESVQoLexFltELfVNAb-131" value="" style="endArrow=classic;html=1;rounded=0;fontSize=11;exitX=0.5;exitY=1;exitDx=0;exitDy=0;entryX=0.5;entryY=0;entryDx=0;entryDy=0;" parent="1" source="WLESVQoLexFltELfVNAb-121" target="WLESVQoLexFltELfVNAb-130" edge="1">
          <mxGeometry width="50" height="50" relative="1" as="geometry">
            <mxPoint x="-400" y="1550" as="sourcePoint" />
            <mxPoint x="-350" y="1500" as="targetPoint" />
          </mxGeometry>
        </mxCell>
        <mxCell id="WLESVQoLexFltELfVNAb-135" style="edgeStyle=orthogonalEdgeStyle;rounded=0;orthogonalLoop=1;jettySize=auto;html=1;exitX=0;exitY=0.5;exitDx=0;exitDy=0;entryX=1;entryY=0.5;entryDx=0;entryDy=0;fontSize=11;" parent="1" source="WLESVQoLexFltELfVNAb-132" target="WLESVQoLexFltELfVNAb-134" edge="1">
          <mxGeometry relative="1" as="geometry" />
        </mxCell>
        <mxCell id="WLESVQoLexFltELfVNAb-132" value="prompt user if they want to place order(y/n)" style="shape=parallelogram;perimeter=parallelogramPerimeter;whiteSpace=wrap;html=1;fixedSize=1;fontSize=11;" parent="1" vertex="1">
          <mxGeometry x="-750" y="1550" width="160" height="80" as="geometry" />
        </mxCell>
        <mxCell id="WLESVQoLexFltELfVNAb-134" value="valid &lt;br&gt;selection?" style="rhombus;whiteSpace=wrap;html=1;fontSize=11;" parent="1" vertex="1">
          <mxGeometry x="-900" y="1550" width="80" height="80" as="geometry" />
        </mxCell>
        <mxCell id="WLESVQoLexFltELfVNAb-136" value="" style="endArrow=classic;html=1;rounded=0;fontSize=11;exitX=0;exitY=0.5;exitDx=0;exitDy=0;entryX=1;entryY=0.5;entryDx=0;entryDy=0;" parent="1" source="WLESVQoLexFltELfVNAb-134" target="WLESVQoLexFltELfVNAb-142" edge="1">
          <mxGeometry relative="1" as="geometry">
            <mxPoint x="-1070" y="1599.5" as="sourcePoint" />
            <mxPoint x="-980" y="1590" as="targetPoint" />
          </mxGeometry>
        </mxCell>
        <mxCell id="WLESVQoLexFltELfVNAb-137" value="true" style="edgeLabel;resizable=0;html=1;align=center;verticalAlign=middle;fontSize=11;" parent="WLESVQoLexFltELfVNAb-136" connectable="0" vertex="1">
          <mxGeometry relative="1" as="geometry">
            <mxPoint y="-9" as="offset" />
          </mxGeometry>
        </mxCell>
        <mxCell id="WLESVQoLexFltELfVNAb-138" value="" style="endArrow=classic;html=1;rounded=0;fontSize=11;exitX=0.5;exitY=1;exitDx=0;exitDy=0;entryX=0.5;entryY=0;entryDx=0;entryDy=0;" parent="1" source="WLESVQoLexFltELfVNAb-134" target="WLESVQoLexFltELfVNAb-140" edge="1">
          <mxGeometry relative="1" as="geometry">
            <mxPoint x="-880" y="1700" as="sourcePoint" />
            <mxPoint x="-860" y="1700" as="targetPoint" />
          </mxGeometry>
        </mxCell>
        <mxCell id="WLESVQoLexFltELfVNAb-139" value="false" style="edgeLabel;resizable=0;html=1;align=center;verticalAlign=middle;fontSize=11;" parent="WLESVQoLexFltELfVNAb-138" connectable="0" vertex="1">
          <mxGeometry relative="1" as="geometry">
            <mxPoint y="-10" as="offset" />
          </mxGeometry>
        </mxCell>
        <mxCell id="WLESVQoLexFltELfVNAb-141" style="edgeStyle=orthogonalEdgeStyle;rounded=0;orthogonalLoop=1;jettySize=auto;html=1;exitX=1;exitY=0.5;exitDx=0;exitDy=0;entryX=0.5;entryY=1;entryDx=0;entryDy=0;fontSize=11;" parent="1" source="WLESVQoLexFltELfVNAb-140" target="WLESVQoLexFltELfVNAb-132" edge="1">
          <mxGeometry relative="1" as="geometry" />
        </mxCell>
        <mxCell id="WLESVQoLexFltELfVNAb-140" value="Error: invalid &lt;br&gt;selection" style="shape=parallelogram;perimeter=parallelogramPerimeter;whiteSpace=wrap;html=1;fixedSize=1;fontSize=11;" parent="1" vertex="1">
          <mxGeometry x="-920" y="1730" width="120" height="60" as="geometry" />
        </mxCell>
        <mxCell id="WLESVQoLexFltELfVNAb-142" value="place &lt;br&gt;order?" style="rhombus;whiteSpace=wrap;html=1;fontSize=11;" parent="1" vertex="1">
          <mxGeometry x="-1060" y="1550" width="80" height="80" as="geometry" />
        </mxCell>
        <mxCell id="WLESVQoLexFltELfVNAb-143" value="" style="endArrow=classic;html=1;rounded=0;fontSize=11;exitX=0;exitY=0.5;exitDx=0;exitDy=0;entryX=1;entryY=0.5;entryDx=0;entryDy=0;" parent="1" source="WLESVQoLexFltELfVNAb-142" target="WLESVQoLexFltELfVNAb-128" edge="1">
          <mxGeometry relative="1" as="geometry">
            <mxPoint x="-1210" y="1570" as="sourcePoint" />
            <mxPoint x="-1170" y="1590" as="targetPoint" />
          </mxGeometry>
        </mxCell>
        <mxCell id="WLESVQoLexFltELfVNAb-144" value="True" style="edgeLabel;resizable=0;html=1;align=center;verticalAlign=middle;fontSize=11;" parent="WLESVQoLexFltELfVNAb-143" connectable="0" vertex="1">
          <mxGeometry relative="1" as="geometry">
            <mxPoint y="-10" as="offset" />
          </mxGeometry>
        </mxCell>
        <mxCell id="WLESVQoLexFltELfVNAb-149" style="edgeStyle=orthogonalEdgeStyle;rounded=0;orthogonalLoop=1;jettySize=auto;html=1;fontSize=11;exitX=0.5;exitY=0;exitDx=0;exitDy=0;" parent="1" source="WH_qL8bAJBr36jCPPk6z-194" edge="1">
          <mxGeometry relative="1" as="geometry">
            <mxPoint x="100" y="228" as="targetPoint" />
            <Array as="points">
              <mxPoint x="-1460" y="228" />
            </Array>
            <mxPoint x="-1460" y="1290" as="sourcePoint" />
          </mxGeometry>
        </mxCell>
        <mxCell id="WLESVQoLexFltELfVNAb-147" value="Add order to order list/file" style="rounded=0;whiteSpace=wrap;html=1;fontSize=11;" parent="1" vertex="1">
          <mxGeometry x="-1520" y="1560" width="120" height="60" as="geometry" />
        </mxCell>
        <mxCell id="WLESVQoLexFltELfVNAb-150" value="" style="endArrow=classic;html=1;rounded=0;fontSize=11;exitX=0.5;exitY=1;exitDx=0;exitDy=0;entryX=0.5;entryY=0;entryDx=0;entryDy=0;" parent="1" source="WLESVQoLexFltELfVNAb-17" target="WLESVQoLexFltELfVNAb-151" edge="1">
          <mxGeometry width="50" height="50" relative="1" as="geometry">
            <mxPoint x="460" y="1040" as="sourcePoint" />
            <mxPoint x="390" y="700" as="targetPoint" />
          </mxGeometry>
        </mxCell>
        <mxCell id="WLESVQoLexFltELfVNAb-151" value="Prompt for date" style="shape=parallelogram;perimeter=parallelogramPerimeter;whiteSpace=wrap;html=1;fixedSize=1;fontSize=11;" parent="1" vertex="1">
          <mxGeometry x="330" y="645" width="120" height="60" as="geometry" />
        </mxCell>
        <mxCell id="WLESVQoLexFltELfVNAb-155" style="edgeStyle=orthogonalEdgeStyle;rounded=0;orthogonalLoop=1;jettySize=auto;html=1;exitX=0.5;exitY=1;exitDx=0;exitDy=0;entryX=0.5;entryY=0;entryDx=0;entryDy=0;fontSize=11;" parent="1" source="WLESVQoLexFltELfVNAb-152" target="WLESVQoLexFltELfVNAb-154" edge="1">
          <mxGeometry relative="1" as="geometry" />
        </mxCell>
        <mxCell id="WLESVQoLexFltELfVNAb-152" value="Prompt for order number" style="shape=parallelogram;perimeter=parallelogramPerimeter;whiteSpace=wrap;html=1;fixedSize=1;fontSize=11;" parent="1" vertex="1">
          <mxGeometry x="330" y="770" width="120" height="60" as="geometry" />
        </mxCell>
        <mxCell id="WLESVQoLexFltELfVNAb-153" value="" style="endArrow=classic;html=1;rounded=0;fontSize=11;exitX=0.5;exitY=1;exitDx=0;exitDy=0;entryX=0.5;entryY=0;entryDx=0;entryDy=0;entryPerimeter=0;" parent="1" source="WLESVQoLexFltELfVNAb-151" target="WLESVQoLexFltELfVNAb-152" edge="1">
          <mxGeometry width="50" height="50" relative="1" as="geometry">
            <mxPoint x="390" y="790" as="sourcePoint" />
            <mxPoint x="390" y="780" as="targetPoint" />
          </mxGeometry>
        </mxCell>
        <mxCell id="WLESVQoLexFltELfVNAb-154" value="order number&lt;br&gt;exists for &lt;br&gt;date?" style="rhombus;whiteSpace=wrap;html=1;fontSize=11;" parent="1" vertex="1">
          <mxGeometry x="340" y="900" width="100" height="100" as="geometry" />
        </mxCell>
        <mxCell id="WLESVQoLexFltELfVNAb-156" value="" style="endArrow=classic;html=1;rounded=0;fontSize=11;exitX=0;exitY=0.5;exitDx=0;exitDy=0;entryX=1;entryY=0.5;entryDx=0;entryDy=0;" parent="1" source="WLESVQoLexFltELfVNAb-154" target="WLESVQoLexFltELfVNAb-160" edge="1">
          <mxGeometry relative="1" as="geometry">
            <mxPoint x="240" y="990" as="sourcePoint" />
            <mxPoint x="340" y="990" as="targetPoint" />
          </mxGeometry>
        </mxCell>
        <mxCell id="WLESVQoLexFltELfVNAb-157" value="False" style="edgeLabel;resizable=0;html=1;align=center;verticalAlign=middle;fontSize=11;" parent="WLESVQoLexFltELfVNAb-156" connectable="0" vertex="1">
          <mxGeometry relative="1" as="geometry">
            <mxPoint y="-10" as="offset" />
          </mxGeometry>
        </mxCell>
        <mxCell id="WLESVQoLexFltELfVNAb-158" value="" style="endArrow=classic;html=1;rounded=0;fontSize=11;exitX=0.5;exitY=1;exitDx=0;exitDy=0;entryX=0.5;entryY=0;entryDx=0;entryDy=0;" parent="1" source="WLESVQoLexFltELfVNAb-154" target="WLESVQoLexFltELfVNAb-162" edge="1">
          <mxGeometry relative="1" as="geometry">
            <mxPoint x="410" y="1090" as="sourcePoint" />
            <mxPoint x="390" y="1100" as="targetPoint" />
          </mxGeometry>
        </mxCell>
        <mxCell id="WLESVQoLexFltELfVNAb-159" value="True" style="edgeLabel;resizable=0;html=1;align=center;verticalAlign=middle;fontSize=11;" parent="WLESVQoLexFltELfVNAb-158" connectable="0" vertex="1">
          <mxGeometry relative="1" as="geometry">
            <mxPoint x="20" y="-10" as="offset" />
          </mxGeometry>
        </mxCell>
        <mxCell id="WLESVQoLexFltELfVNAb-161" style="edgeStyle=orthogonalEdgeStyle;rounded=0;orthogonalLoop=1;jettySize=auto;html=1;exitX=0.5;exitY=1;exitDx=0;exitDy=0;fontSize=11;" parent="1" source="WLESVQoLexFltELfVNAb-160" edge="1">
          <mxGeometry relative="1" as="geometry">
            <mxPoint x="-1460" y="1380" as="targetPoint" />
            <Array as="points">
              <mxPoint x="150" y="1840" />
              <mxPoint x="-1640" y="1840" />
              <mxPoint x="-1640" y="1380" />
            </Array>
          </mxGeometry>
        </mxCell>
        <mxCell id="WLESVQoLexFltELfVNAb-160" value="Display no order &lt;br&gt;exists for selected date and order number" style="shape=parallelogram;perimeter=parallelogramPerimeter;whiteSpace=wrap;html=1;fixedSize=1;fontSize=11;" parent="1" vertex="1">
          <mxGeometry x="70" y="910" width="160" height="80" as="geometry" />
        </mxCell>
        <mxCell id="WLESVQoLexFltELfVNAb-162" value="Display Customer&lt;br&gt;&amp;nbsp;name" style="shape=parallelogram;perimeter=parallelogramPerimeter;whiteSpace=wrap;html=1;fixedSize=1;fontSize=11;" parent="1" vertex="1">
          <mxGeometry x="330" y="1080" width="120" height="60" as="geometry" />
        </mxCell>
        <mxCell id="WLESVQoLexFltELfVNAb-167" style="edgeStyle=orthogonalEdgeStyle;rounded=0;orthogonalLoop=1;jettySize=auto;html=1;exitX=0.5;exitY=1;exitDx=0;exitDy=0;entryX=0.5;entryY=0;entryDx=0;entryDy=0;fontSize=11;" parent="1" source="WLESVQoLexFltELfVNAb-163" target="WLESVQoLexFltELfVNAb-166" edge="1">
          <mxGeometry relative="1" as="geometry" />
        </mxCell>
        <mxCell id="WLESVQoLexFltELfVNAb-163" value="Prompt for new customer name" style="shape=parallelogram;perimeter=parallelogramPerimeter;whiteSpace=wrap;html=1;fixedSize=1;fontSize=11;" parent="1" vertex="1">
          <mxGeometry x="320" y="1220" width="120" height="60" as="geometry" />
        </mxCell>
        <mxCell id="WLESVQoLexFltELfVNAb-165" value="" style="endArrow=classic;html=1;rounded=0;fontSize=11;exitX=0.425;exitY=1.017;exitDx=0;exitDy=0;exitPerimeter=0;entryX=0.5;entryY=0;entryDx=0;entryDy=0;" parent="1" source="WLESVQoLexFltELfVNAb-162" target="WLESVQoLexFltELfVNAb-163" edge="1">
          <mxGeometry width="50" height="50" relative="1" as="geometry">
            <mxPoint x="410" y="1200" as="sourcePoint" />
            <mxPoint x="460" y="1150" as="targetPoint" />
          </mxGeometry>
        </mxCell>
        <mxCell id="WLESVQoLexFltELfVNAb-166" value="Valid customer&lt;br&gt;&amp;nbsp;name?" style="rhombus;whiteSpace=wrap;html=1;fontSize=11;" parent="1" vertex="1">
          <mxGeometry x="330" y="1350" width="100" height="100" as="geometry" />
        </mxCell>
        <mxCell id="WLESVQoLexFltELfVNAb-168" value="" style="endArrow=classic;html=1;rounded=0;fontSize=11;entryX=1;entryY=0.5;entryDx=0;entryDy=0;" parent="1" source="WLESVQoLexFltELfVNAb-166" target="WLESVQoLexFltELfVNAb-170" edge="1">
          <mxGeometry relative="1" as="geometry">
            <mxPoint x="220" y="1520" as="sourcePoint" />
            <mxPoint x="340" y="1520" as="targetPoint" />
          </mxGeometry>
        </mxCell>
        <mxCell id="WLESVQoLexFltELfVNAb-169" value="False" style="edgeLabel;resizable=0;html=1;align=center;verticalAlign=middle;fontSize=11;" parent="WLESVQoLexFltELfVNAb-168" connectable="0" vertex="1">
          <mxGeometry relative="1" as="geometry">
            <mxPoint y="-10" as="offset" />
          </mxGeometry>
        </mxCell>
        <mxCell id="WLESVQoLexFltELfVNAb-170" value="Error: invalid &lt;br&gt;customer name" style="shape=parallelogram;perimeter=parallelogramPerimeter;whiteSpace=wrap;html=1;fixedSize=1;fontSize=11;" parent="1" vertex="1">
          <mxGeometry x="160" y="1370" width="120" height="60" as="geometry" />
        </mxCell>
        <mxCell id="WLESVQoLexFltELfVNAb-171" value="" style="endArrow=classic;html=1;rounded=0;fontSize=11;exitX=0.5;exitY=0;exitDx=0;exitDy=0;entryX=0;entryY=0.5;entryDx=0;entryDy=0;" parent="1" source="WLESVQoLexFltELfVNAb-170" target="WLESVQoLexFltELfVNAb-163" edge="1">
          <mxGeometry width="50" height="50" relative="1" as="geometry">
            <mxPoint x="220" y="1340" as="sourcePoint" />
            <mxPoint x="220" y="1230" as="targetPoint" />
            <Array as="points">
              <mxPoint x="220" y="1250" />
            </Array>
          </mxGeometry>
        </mxCell>
        <mxCell id="WLESVQoLexFltELfVNAb-172" value="display state and Prompt for state" style="shape=parallelogram;perimeter=parallelogramPerimeter;whiteSpace=wrap;html=1;fixedSize=1;fontSize=11;" parent="1" vertex="1">
          <mxGeometry x="570" y="1440" width="120" height="60" as="geometry" />
        </mxCell>
        <mxCell id="WLESVQoLexFltELfVNAb-173" value="is entered &lt;br&gt;state present within tax file?" style="rhombus;whiteSpace=wrap;html=1;fontSize=11;" parent="1" vertex="1">
          <mxGeometry x="355" y="1525" width="110" height="110" as="geometry" />
        </mxCell>
        <mxCell id="WLESVQoLexFltELfVNAb-174" value="Check against tax file for state entered" style="rounded=0;whiteSpace=wrap;html=1;fontSize=11;" parent="1" vertex="1">
          <mxGeometry x="560" y="1550" width="120" height="60" as="geometry" />
        </mxCell>
        <mxCell id="WLESVQoLexFltELfVNAb-175" value="" style="endArrow=classic;html=1;rounded=0;fontSize=11;exitX=0.5;exitY=1;exitDx=0;exitDy=0;entryX=0.567;entryY=-0.017;entryDx=0;entryDy=0;entryPerimeter=0;" parent="1" source="WLESVQoLexFltELfVNAb-172" target="WLESVQoLexFltELfVNAb-174" edge="1">
          <mxGeometry width="50" height="50" relative="1" as="geometry">
            <mxPoint x="635" y="1540" as="sourcePoint" />
            <mxPoint x="685" y="1490" as="targetPoint" />
          </mxGeometry>
        </mxCell>
        <mxCell id="WLESVQoLexFltELfVNAb-176" value="" style="endArrow=classic;html=1;rounded=0;fontSize=11;entryX=1;entryY=0.5;entryDx=0;entryDy=0;exitX=0;exitY=0.5;exitDx=0;exitDy=0;" parent="1" source="WLESVQoLexFltELfVNAb-174" target="WLESVQoLexFltELfVNAb-173" edge="1">
          <mxGeometry width="50" height="50" relative="1" as="geometry">
            <mxPoint x="450" y="1640" as="sourcePoint" />
            <mxPoint x="500" y="1590" as="targetPoint" />
          </mxGeometry>
        </mxCell>
        <mxCell id="WLESVQoLexFltELfVNAb-178" value="" style="endArrow=classic;html=1;rounded=0;fontSize=11;exitX=0;exitY=0.5;exitDx=0;exitDy=0;" parent="1" source="WLESVQoLexFltELfVNAb-173" target="WLESVQoLexFltELfVNAb-180" edge="1">
          <mxGeometry relative="1" as="geometry">
            <mxPoint x="200" y="1590" as="sourcePoint" />
            <mxPoint x="270" y="1580" as="targetPoint" />
          </mxGeometry>
        </mxCell>
        <mxCell id="WLESVQoLexFltELfVNAb-179" value="False" style="edgeLabel;resizable=0;html=1;align=center;verticalAlign=middle;fontSize=11;" parent="WLESVQoLexFltELfVNAb-178" connectable="0" vertex="1">
          <mxGeometry relative="1" as="geometry">
            <mxPoint y="-20" as="offset" />
          </mxGeometry>
        </mxCell>
        <mxCell id="WLESVQoLexFltELfVNAb-180" value="Error: Cannot &lt;br&gt;sell &lt;br&gt;as state not&lt;br&gt;&amp;nbsp;in tax file" style="shape=parallelogram;perimeter=parallelogramPerimeter;whiteSpace=wrap;html=1;fixedSize=1;fontSize=11;" parent="1" vertex="1">
          <mxGeometry x="160" y="1550" width="120" height="60" as="geometry" />
        </mxCell>
        <mxCell id="WLESVQoLexFltELfVNAb-181" value="" style="endArrow=classic;html=1;rounded=0;fontSize=11;exitX=1;exitY=0.5;exitDx=0;exitDy=0;entryX=0.6;entryY=-0.033;entryDx=0;entryDy=0;entryPerimeter=0;" parent="1" source="WLESVQoLexFltELfVNAb-166" target="WLESVQoLexFltELfVNAb-172" edge="1">
          <mxGeometry relative="1" as="geometry">
            <mxPoint x="460" y="1399.5" as="sourcePoint" />
            <mxPoint x="650" y="1400" as="targetPoint" />
            <Array as="points">
              <mxPoint x="642" y="1400" />
            </Array>
          </mxGeometry>
        </mxCell>
        <mxCell id="WLESVQoLexFltELfVNAb-182" value="true" style="edgeLabel;resizable=0;html=1;align=center;verticalAlign=middle;fontSize=11;" parent="WLESVQoLexFltELfVNAb-181" connectable="0" vertex="1">
          <mxGeometry relative="1" as="geometry">
            <mxPoint y="-9" as="offset" />
          </mxGeometry>
        </mxCell>
        <mxCell id="WLESVQoLexFltELfVNAb-183" value="" style="endArrow=classic;html=1;rounded=0;fontSize=11;exitX=0.575;exitY=0.017;exitDx=0;exitDy=0;exitPerimeter=0;entryX=0;entryY=0.5;entryDx=0;entryDy=0;" parent="1" source="WLESVQoLexFltELfVNAb-180" target="WLESVQoLexFltELfVNAb-172" edge="1">
          <mxGeometry width="50" height="50" relative="1" as="geometry">
            <mxPoint x="220" y="1525" as="sourcePoint" />
            <mxPoint x="270" y="1475" as="targetPoint" />
            <Array as="points">
              <mxPoint x="229" y="1470" />
            </Array>
          </mxGeometry>
        </mxCell>
        <mxCell id="WLESVQoLexFltELfVNAb-184" value="" style="endArrow=classic;html=1;rounded=0;fontSize=11;exitX=0.5;exitY=1;exitDx=0;exitDy=0;entryX=0.5;entryY=0;entryDx=0;entryDy=0;" parent="1" source="WLESVQoLexFltELfVNAb-173" target="WLESVQoLexFltELfVNAb-186" edge="1">
          <mxGeometry relative="1" as="geometry">
            <mxPoint x="400" y="1680" as="sourcePoint" />
            <mxPoint x="410" y="1710" as="targetPoint" />
          </mxGeometry>
        </mxCell>
        <mxCell id="WLESVQoLexFltELfVNAb-185" value="True" style="edgeLabel;resizable=0;html=1;align=center;verticalAlign=middle;fontSize=11;" parent="WLESVQoLexFltELfVNAb-184" connectable="0" vertex="1">
          <mxGeometry relative="1" as="geometry">
            <mxPoint y="-10" as="offset" />
          </mxGeometry>
        </mxCell>
        <mxCell id="WLESVQoLexFltELfVNAb-200" style="edgeStyle=orthogonalEdgeStyle;rounded=0;orthogonalLoop=1;jettySize=auto;html=1;exitX=0.5;exitY=1;exitDx=0;exitDy=0;entryX=0.667;entryY=-0.033;entryDx=0;entryDy=0;entryPerimeter=0;fontSize=11;" parent="1" source="WLESVQoLexFltELfVNAb-186" target="WLESVQoLexFltELfVNAb-188" edge="1">
          <mxGeometry relative="1" as="geometry" />
        </mxCell>
        <mxCell id="WLESVQoLexFltELfVNAb-186" value="Display product" style="shape=parallelogram;perimeter=parallelogramPerimeter;whiteSpace=wrap;html=1;fixedSize=1;fontSize=11;" parent="1" vertex="1">
          <mxGeometry x="350" y="1710" width="120" height="60" as="geometry" />
        </mxCell>
        <mxCell id="WLESVQoLexFltELfVNAb-188" value="Display list &lt;br&gt;of products" style="shape=parallelogram;perimeter=parallelogramPerimeter;whiteSpace=wrap;html=1;fixedSize=1;fontSize=11;" parent="1" vertex="1">
          <mxGeometry x="330" y="1880" width="120" height="60" as="geometry" />
        </mxCell>
        <mxCell id="WLESVQoLexFltELfVNAb-189" value="Prompt user for &lt;br&gt;product selection" style="shape=parallelogram;perimeter=parallelogramPerimeter;whiteSpace=wrap;html=1;fixedSize=1;fontSize=11;" parent="1" vertex="1">
          <mxGeometry x="120" y="1880" width="120" height="60" as="geometry" />
        </mxCell>
        <mxCell id="WLESVQoLexFltELfVNAb-190" value="" style="endArrow=classic;html=1;rounded=0;fontSize=11;exitX=0;exitY=0.5;exitDx=0;exitDy=0;entryX=1;entryY=0.5;entryDx=0;entryDy=0;" parent="1" source="WLESVQoLexFltELfVNAb-188" target="WLESVQoLexFltELfVNAb-189" edge="1">
          <mxGeometry width="50" height="50" relative="1" as="geometry">
            <mxPoint x="260" y="1900" as="sourcePoint" />
            <mxPoint x="310" y="1850" as="targetPoint" />
          </mxGeometry>
        </mxCell>
        <mxCell id="WLESVQoLexFltELfVNAb-191" value="valid &lt;br&gt;selection?" style="rhombus;whiteSpace=wrap;html=1;fontSize=11;" parent="1" vertex="1">
          <mxGeometry x="-30" y="1870" width="80" height="80" as="geometry" />
        </mxCell>
        <mxCell id="WLESVQoLexFltELfVNAb-192" value="display invalid &lt;br&gt;selection" style="shape=parallelogram;perimeter=parallelogramPerimeter;whiteSpace=wrap;html=1;fixedSize=1;fontSize=11;" parent="1" vertex="1">
          <mxGeometry x="-50" y="2010" width="120" height="60" as="geometry" />
        </mxCell>
        <mxCell id="WLESVQoLexFltELfVNAb-193" value="" style="endArrow=classic;html=1;rounded=0;fontSize=11;exitX=0;exitY=0.5;exitDx=0;exitDy=0;entryX=1;entryY=0.5;entryDx=0;entryDy=0;" parent="1" source="WLESVQoLexFltELfVNAb-191" target="WH_qL8bAJBr36jCPPk6z-1" edge="1">
          <mxGeometry relative="1" as="geometry">
            <mxPoint x="-190" y="1939" as="sourcePoint" />
            <mxPoint x="-150" y="1910" as="targetPoint" />
          </mxGeometry>
        </mxCell>
        <mxCell id="WLESVQoLexFltELfVNAb-194" value="True" style="edgeLabel;resizable=0;html=1;align=center;verticalAlign=middle;fontSize=11;" parent="WLESVQoLexFltELfVNAb-193" connectable="0" vertex="1">
          <mxGeometry relative="1" as="geometry">
            <mxPoint y="-10" as="offset" />
          </mxGeometry>
        </mxCell>
        <mxCell id="WLESVQoLexFltELfVNAb-195" value="" style="endArrow=classic;html=1;rounded=0;fontSize=11;exitX=0.5;exitY=1;exitDx=0;exitDy=0;entryX=0.5;entryY=0;entryDx=0;entryDy=0;" parent="1" source="WLESVQoLexFltELfVNAb-191" target="WLESVQoLexFltELfVNAb-192" edge="1">
          <mxGeometry relative="1" as="geometry">
            <mxPoint x="10" y="1964" as="sourcePoint" />
            <mxPoint x="110" y="1964" as="targetPoint" />
          </mxGeometry>
        </mxCell>
        <mxCell id="WLESVQoLexFltELfVNAb-196" value="False" style="edgeLabel;resizable=0;html=1;align=center;verticalAlign=middle;fontSize=11;" parent="WLESVQoLexFltELfVNAb-195" connectable="0" vertex="1">
          <mxGeometry relative="1" as="geometry">
            <mxPoint x="20" as="offset" />
          </mxGeometry>
        </mxCell>
        <mxCell id="WLESVQoLexFltELfVNAb-197" value="" style="endArrow=classic;html=1;rounded=0;fontSize=11;exitX=1;exitY=0.5;exitDx=0;exitDy=0;entryX=0.45;entryY=1.05;entryDx=0;entryDy=0;entryPerimeter=0;" parent="1" source="WLESVQoLexFltELfVNAb-192" target="WLESVQoLexFltELfVNAb-189" edge="1">
          <mxGeometry width="50" height="50" relative="1" as="geometry">
            <mxPoint x="90" y="2040" as="sourcePoint" />
            <mxPoint x="170" y="2040" as="targetPoint" />
            <Array as="points">
              <mxPoint x="170" y="2040" />
            </Array>
          </mxGeometry>
        </mxCell>
        <mxCell id="WLESVQoLexFltELfVNAb-198" value="" style="endArrow=classic;html=1;rounded=0;fontSize=11;exitX=0;exitY=0.5;exitDx=0;exitDy=0;entryX=1;entryY=0.5;entryDx=0;entryDy=0;" parent="1" source="WLESVQoLexFltELfVNAb-189" target="WLESVQoLexFltELfVNAb-191" edge="1">
          <mxGeometry width="50" height="50" relative="1" as="geometry">
            <mxPoint x="70" y="1890" as="sourcePoint" />
            <mxPoint x="120" y="1840" as="targetPoint" />
          </mxGeometry>
        </mxCell>
        <mxCell id="WH_qL8bAJBr36jCPPk6z-150" style="edgeStyle=orthogonalEdgeStyle;rounded=0;orthogonalLoop=1;jettySize=auto;html=1;exitX=0;exitY=0.5;exitDx=0;exitDy=0;" parent="1" source="WH_qL8bAJBr36jCPPk6z-1" target="WH_qL8bAJBr36jCPPk6z-111" edge="1">
          <mxGeometry relative="1" as="geometry" />
        </mxCell>
        <mxCell id="WH_qL8bAJBr36jCPPk6z-1" value="Display Area" style="shape=parallelogram;perimeter=parallelogramPerimeter;whiteSpace=wrap;html=1;fixedSize=1;" parent="1" vertex="1">
          <mxGeometry x="-260" y="1880" width="120" height="60" as="geometry" />
        </mxCell>
        <mxCell id="WH_qL8bAJBr36jCPPk6z-2" value="" style="endArrow=classic;html=1;rounded=0;fontSize=11;exitX=0.5;exitY=1;exitDx=0;exitDy=0;entryX=0.5;entryY=0;entryDx=0;entryDy=0;" parent="1" edge="1">
          <mxGeometry relative="1" as="geometry">
            <mxPoint x="-330" y="1115" as="sourcePoint" />
            <mxPoint x="-330" y="1190" as="targetPoint" />
          </mxGeometry>
        </mxCell>
        <mxCell id="WH_qL8bAJBr36jCPPk6z-3" value="True" style="edgeLabel;resizable=0;html=1;align=center;verticalAlign=middle;fontSize=11;" parent="WH_qL8bAJBr36jCPPk6z-2" connectable="0" vertex="1">
          <mxGeometry relative="1" as="geometry">
            <mxPoint x="20" y="-10" as="offset" />
          </mxGeometry>
        </mxCell>
        <mxCell id="WH_qL8bAJBr36jCPPk6z-5" value="Prompt user for &lt;br&gt;product selection" style="shape=parallelogram;perimeter=parallelogramPerimeter;whiteSpace=wrap;html=1;fixedSize=1;fontSize=11;" parent="1" vertex="1">
          <mxGeometry x="-600" y="1190" width="120" height="60" as="geometry" />
        </mxCell>
        <mxCell id="WH_qL8bAJBr36jCPPk6z-6" value="valid &lt;br&gt;selection?" style="rhombus;whiteSpace=wrap;html=1;fontSize=11;" parent="1" vertex="1">
          <mxGeometry x="-750" y="1180" width="80" height="80" as="geometry" />
        </mxCell>
        <mxCell id="WH_qL8bAJBr36jCPPk6z-7" value="display invalid &lt;br&gt;selection" style="shape=parallelogram;perimeter=parallelogramPerimeter;whiteSpace=wrap;html=1;fixedSize=1;fontSize=11;" parent="1" vertex="1">
          <mxGeometry x="-770" y="1320" width="120" height="60" as="geometry" />
        </mxCell>
        <mxCell id="WH_qL8bAJBr36jCPPk6z-8" value="" style="endArrow=classic;html=1;rounded=0;fontSize=11;exitX=0;exitY=0.5;exitDx=0;exitDy=0;entryX=1;entryY=0.5;entryDx=0;entryDy=0;" parent="1" source="WH_qL8bAJBr36jCPPk6z-6" target="WH_qL8bAJBr36jCPPk6z-14" edge="1">
          <mxGeometry relative="1" as="geometry">
            <mxPoint x="-910" y="1249" as="sourcePoint" />
            <mxPoint x="-860" y="1220" as="targetPoint" />
          </mxGeometry>
        </mxCell>
        <mxCell id="WH_qL8bAJBr36jCPPk6z-9" value="True" style="edgeLabel;resizable=0;html=1;align=center;verticalAlign=middle;fontSize=11;" parent="WH_qL8bAJBr36jCPPk6z-8" connectable="0" vertex="1">
          <mxGeometry relative="1" as="geometry">
            <mxPoint y="-10" as="offset" />
          </mxGeometry>
        </mxCell>
        <mxCell id="WH_qL8bAJBr36jCPPk6z-10" value="" style="endArrow=classic;html=1;rounded=0;fontSize=11;exitX=0.5;exitY=1;exitDx=0;exitDy=0;entryX=0.5;entryY=0;entryDx=0;entryDy=0;" parent="1" source="WH_qL8bAJBr36jCPPk6z-6" target="WH_qL8bAJBr36jCPPk6z-7" edge="1">
          <mxGeometry relative="1" as="geometry">
            <mxPoint x="-710" y="1274" as="sourcePoint" />
            <mxPoint x="-610" y="1274" as="targetPoint" />
          </mxGeometry>
        </mxCell>
        <mxCell id="WH_qL8bAJBr36jCPPk6z-11" value="False" style="edgeLabel;resizable=0;html=1;align=center;verticalAlign=middle;fontSize=11;" parent="WH_qL8bAJBr36jCPPk6z-10" connectable="0" vertex="1">
          <mxGeometry relative="1" as="geometry">
            <mxPoint x="20" as="offset" />
          </mxGeometry>
        </mxCell>
        <mxCell id="WH_qL8bAJBr36jCPPk6z-12" value="" style="endArrow=classic;html=1;rounded=0;fontSize=11;exitX=1;exitY=0.5;exitDx=0;exitDy=0;entryX=0.45;entryY=1.05;entryDx=0;entryDy=0;entryPerimeter=0;" parent="1" source="WH_qL8bAJBr36jCPPk6z-7" target="WH_qL8bAJBr36jCPPk6z-5" edge="1">
          <mxGeometry width="50" height="50" relative="1" as="geometry">
            <mxPoint x="-630" y="1350" as="sourcePoint" />
            <mxPoint x="-550" y="1350" as="targetPoint" />
            <Array as="points">
              <mxPoint x="-550" y="1350" />
            </Array>
          </mxGeometry>
        </mxCell>
        <mxCell id="WH_qL8bAJBr36jCPPk6z-13" value="" style="endArrow=classic;html=1;rounded=0;fontSize=11;exitX=0;exitY=0.5;exitDx=0;exitDy=0;entryX=1;entryY=0.5;entryDx=0;entryDy=0;" parent="1" source="WH_qL8bAJBr36jCPPk6z-5" target="WH_qL8bAJBr36jCPPk6z-6" edge="1">
          <mxGeometry width="50" height="50" relative="1" as="geometry">
            <mxPoint x="-650" y="1200" as="sourcePoint" />
            <mxPoint x="-600" y="1150" as="targetPoint" />
          </mxGeometry>
        </mxCell>
        <mxCell id="WH_qL8bAJBr36jCPPk6z-14" value="Prompt for area" style="shape=parallelogram;perimeter=parallelogramPerimeter;whiteSpace=wrap;html=1;fixedSize=1;fontSize=11;" parent="1" vertex="1">
          <mxGeometry x="-980" y="1190" width="120" height="60" as="geometry" />
        </mxCell>
        <mxCell id="WH_qL8bAJBr36jCPPk6z-15" value="minimum &lt;br&gt;area 100?&amp;nbsp;" style="rhombus;whiteSpace=wrap;html=1;fontSize=11;" parent="1" vertex="1">
          <mxGeometry x="-960" y="1030" width="80" height="80" as="geometry" />
        </mxCell>
        <mxCell id="WH_qL8bAJBr36jCPPk6z-16" value="" style="endArrow=classic;html=1;rounded=0;fontSize=11;exitX=0.5;exitY=0;exitDx=0;exitDy=0;entryX=0.5;entryY=1;entryDx=0;entryDy=0;" parent="1" source="WH_qL8bAJBr36jCPPk6z-14" target="WH_qL8bAJBr36jCPPk6z-15" edge="1">
          <mxGeometry width="50" height="50" relative="1" as="geometry">
            <mxPoint x="-920" y="1160" as="sourcePoint" />
            <mxPoint x="-920" y="1080" as="targetPoint" />
          </mxGeometry>
        </mxCell>
        <mxCell id="WH_qL8bAJBr36jCPPk6z-17" value="" style="endArrow=classic;html=1;rounded=0;fontSize=11;exitX=0.5;exitY=0;exitDx=0;exitDy=0;" parent="1" source="WH_qL8bAJBr36jCPPk6z-15" edge="1">
          <mxGeometry relative="1" as="geometry">
            <mxPoint x="-930" y="990" as="sourcePoint" />
            <mxPoint x="-920" y="940" as="targetPoint" />
          </mxGeometry>
        </mxCell>
        <mxCell id="WH_qL8bAJBr36jCPPk6z-18" value="false" style="edgeLabel;resizable=0;html=1;align=center;verticalAlign=middle;fontSize=11;" parent="WH_qL8bAJBr36jCPPk6z-17" connectable="0" vertex="1">
          <mxGeometry relative="1" as="geometry">
            <mxPoint x="17" y="9" as="offset" />
          </mxGeometry>
        </mxCell>
        <mxCell id="WH_qL8bAJBr36jCPPk6z-19" value="" style="endArrow=classic;html=1;rounded=0;fontSize=11;exitX=0;exitY=0.5;exitDx=0;exitDy=0;entryX=1;entryY=0.5;entryDx=0;entryDy=0;" parent="1" source="WH_qL8bAJBr36jCPPk6z-15" target="WH_qL8bAJBr36jCPPk6z-22" edge="1">
          <mxGeometry relative="1" as="geometry">
            <mxPoint x="-1090" y="1080" as="sourcePoint" />
            <mxPoint x="-1050" y="1070" as="targetPoint" />
          </mxGeometry>
        </mxCell>
        <mxCell id="WH_qL8bAJBr36jCPPk6z-20" value="True" style="edgeLabel;resizable=0;html=1;align=center;verticalAlign=middle;fontSize=11;" parent="WH_qL8bAJBr36jCPPk6z-19" connectable="0" vertex="1">
          <mxGeometry relative="1" as="geometry">
            <mxPoint x="-10" y="-10" as="offset" />
          </mxGeometry>
        </mxCell>
        <mxCell id="WH_qL8bAJBr36jCPPk6z-21" value="Error: Number &lt;br&gt;entered must &lt;br&gt;be positive and &amp;gt; 100" style="shape=parallelogram;perimeter=parallelogramPerimeter;whiteSpace=wrap;html=1;fixedSize=1;fontSize=11;" parent="1" vertex="1">
          <mxGeometry x="-980" y="870" width="140" height="70" as="geometry" />
        </mxCell>
        <mxCell id="WH_qL8bAJBr36jCPPk6z-22" value="service: Calculate cost per square foot" style="rounded=0;whiteSpace=wrap;html=1;fontSize=11;" parent="1" vertex="1">
          <mxGeometry x="-1210" y="1040" width="120" height="60" as="geometry" />
        </mxCell>
        <mxCell id="WH_qL8bAJBr36jCPPk6z-23" value="Service: Calculate Labor cost per square foot" style="rounded=0;whiteSpace=wrap;html=1;fontSize=11;" parent="1" vertex="1">
          <mxGeometry x="-1210" y="1200" width="120" height="60" as="geometry" />
        </mxCell>
        <mxCell id="WH_qL8bAJBr36jCPPk6z-24" style="edgeStyle=orthogonalEdgeStyle;rounded=0;orthogonalLoop=1;jettySize=auto;html=1;exitX=0.5;exitY=1;exitDx=0;exitDy=0;entryX=0;entryY=0.5;entryDx=0;entryDy=0;fontSize=11;" parent="1" source="WH_qL8bAJBr36jCPPk6z-25" target="WH_qL8bAJBr36jCPPk6z-27" edge="1">
          <mxGeometry relative="1" as="geometry" />
        </mxCell>
        <mxCell id="WH_qL8bAJBr36jCPPk6z-25" value="Service: Calculate Material cost" style="rounded=0;whiteSpace=wrap;html=1;fontSize=11;" parent="1" vertex="1">
          <mxGeometry x="-1210" y="1350" width="120" height="60" as="geometry" />
        </mxCell>
        <mxCell id="WH_qL8bAJBr36jCPPk6z-26" style="edgeStyle=orthogonalEdgeStyle;rounded=0;orthogonalLoop=1;jettySize=auto;html=1;exitX=1;exitY=0.5;exitDx=0;exitDy=0;fontSize=11;entryX=0;entryY=0.5;entryDx=0;entryDy=0;" parent="1" source="WH_qL8bAJBr36jCPPk6z-27" target="WH_qL8bAJBr36jCPPk6z-29" edge="1">
          <mxGeometry relative="1" as="geometry">
            <mxPoint x="-810" y="1470" as="targetPoint" />
          </mxGeometry>
        </mxCell>
        <mxCell id="WH_qL8bAJBr36jCPPk6z-27" value="Service: Calculate Labor cost" style="rounded=0;whiteSpace=wrap;html=1;fontSize=11;" parent="1" vertex="1">
          <mxGeometry x="-990" y="1440" width="120" height="60" as="geometry" />
        </mxCell>
        <mxCell id="WH_qL8bAJBr36jCPPk6z-28" style="edgeStyle=orthogonalEdgeStyle;rounded=0;orthogonalLoop=1;jettySize=auto;html=1;exitX=1;exitY=0.5;exitDx=0;exitDy=0;fontSize=11;entryX=0;entryY=0.5;entryDx=0;entryDy=0;" parent="1" source="WH_qL8bAJBr36jCPPk6z-29" target="WH_qL8bAJBr36jCPPk6z-30" edge="1">
          <mxGeometry relative="1" as="geometry">
            <mxPoint x="-520" y="1470" as="targetPoint" />
          </mxGeometry>
        </mxCell>
        <mxCell id="WH_qL8bAJBr36jCPPk6z-29" value="Service: Calculate tax" style="rounded=0;whiteSpace=wrap;html=1;fontSize=11;" parent="1" vertex="1">
          <mxGeometry x="-740" y="1440" width="120" height="60" as="geometry" />
        </mxCell>
        <mxCell id="WH_qL8bAJBr36jCPPk6z-30" value="Service: Calculate Total" style="rounded=0;whiteSpace=wrap;html=1;fontSize=11;" parent="1" vertex="1">
          <mxGeometry x="-470" y="1440" width="120" height="60" as="geometry" />
        </mxCell>
        <mxCell id="WH_qL8bAJBr36jCPPk6z-31" value="" style="endArrow=classic;html=1;rounded=0;fontSize=11;exitX=0.5;exitY=1;exitDx=0;exitDy=0;entryX=0.5;entryY=0;entryDx=0;entryDy=0;" parent="1" source="WH_qL8bAJBr36jCPPk6z-22" target="WH_qL8bAJBr36jCPPk6z-23" edge="1">
          <mxGeometry width="50" height="50" relative="1" as="geometry">
            <mxPoint x="-1160" y="1160" as="sourcePoint" />
            <mxPoint x="-1110" y="1110" as="targetPoint" />
          </mxGeometry>
        </mxCell>
        <mxCell id="WH_qL8bAJBr36jCPPk6z-32" value="" style="endArrow=classic;html=1;rounded=0;fontSize=11;exitX=0.5;exitY=1;exitDx=0;exitDy=0;entryX=0.5;entryY=0;entryDx=0;entryDy=0;" parent="1" source="WH_qL8bAJBr36jCPPk6z-23" target="WH_qL8bAJBr36jCPPk6z-25" edge="1">
          <mxGeometry width="50" height="50" relative="1" as="geometry">
            <mxPoint x="-1140" y="1290" as="sourcePoint" />
            <mxPoint x="-1090" y="1240" as="targetPoint" />
          </mxGeometry>
        </mxCell>
        <mxCell id="WH_qL8bAJBr36jCPPk6z-33" style="edgeStyle=orthogonalEdgeStyle;rounded=0;orthogonalLoop=1;jettySize=auto;html=1;exitX=0;exitY=0.5;exitDx=0;exitDy=0;fontSize=11;" parent="1" source="WH_qL8bAJBr36jCPPk6z-34" target="WH_qL8bAJBr36jCPPk6z-52" edge="1">
          <mxGeometry relative="1" as="geometry" />
        </mxCell>
        <mxCell id="WH_qL8bAJBr36jCPPk6z-34" value="Service: Calculate next available order number" style="rounded=0;whiteSpace=wrap;html=1;fontSize=11;" parent="1" vertex="1">
          <mxGeometry x="-1320" y="1560" width="120" height="60" as="geometry" />
        </mxCell>
        <mxCell id="WH_qL8bAJBr36jCPPk6z-35" style="edgeStyle=orthogonalEdgeStyle;rounded=0;orthogonalLoop=1;jettySize=auto;html=1;exitX=0;exitY=0.5;exitDx=0;exitDy=0;entryX=0.938;entryY=0.625;entryDx=0;entryDy=0;entryPerimeter=0;fontSize=11;" parent="1" source="WH_qL8bAJBr36jCPPk6z-36" target="WH_qL8bAJBr36jCPPk6z-39" edge="1">
          <mxGeometry relative="1" as="geometry" />
        </mxCell>
        <mxCell id="WH_qL8bAJBr36jCPPk6z-36" value="Display order&lt;br&gt;&amp;nbsp;summary" style="shape=parallelogram;perimeter=parallelogramPerimeter;whiteSpace=wrap;html=1;fixedSize=1;fontSize=11;" parent="1" vertex="1">
          <mxGeometry x="-470" y="1570" width="120" height="60" as="geometry" />
        </mxCell>
        <mxCell id="WH_qL8bAJBr36jCPPk6z-37" value="" style="endArrow=classic;html=1;rounded=0;fontSize=11;exitX=0.5;exitY=1;exitDx=0;exitDy=0;entryX=0.5;entryY=0;entryDx=0;entryDy=0;" parent="1" source="WH_qL8bAJBr36jCPPk6z-30" target="WH_qL8bAJBr36jCPPk6z-36" edge="1">
          <mxGeometry width="50" height="50" relative="1" as="geometry">
            <mxPoint x="-400" y="1550" as="sourcePoint" />
            <mxPoint x="-350" y="1500" as="targetPoint" />
          </mxGeometry>
        </mxCell>
        <mxCell id="WH_qL8bAJBr36jCPPk6z-38" style="edgeStyle=orthogonalEdgeStyle;rounded=0;orthogonalLoop=1;jettySize=auto;html=1;exitX=0;exitY=0.5;exitDx=0;exitDy=0;entryX=1;entryY=0.5;entryDx=0;entryDy=0;fontSize=11;" parent="1" source="WH_qL8bAJBr36jCPPk6z-39" target="WH_qL8bAJBr36jCPPk6z-40" edge="1">
          <mxGeometry relative="1" as="geometry" />
        </mxCell>
        <mxCell id="WH_qL8bAJBr36jCPPk6z-39" value="prompt user if they want to place order(y/n)" style="shape=parallelogram;perimeter=parallelogramPerimeter;whiteSpace=wrap;html=1;fixedSize=1;fontSize=11;" parent="1" vertex="1">
          <mxGeometry x="-750" y="1550" width="160" height="80" as="geometry" />
        </mxCell>
        <mxCell id="WH_qL8bAJBr36jCPPk6z-40" value="valid &lt;br&gt;selection?" style="rhombus;whiteSpace=wrap;html=1;fontSize=11;" parent="1" vertex="1">
          <mxGeometry x="-900" y="1550" width="80" height="80" as="geometry" />
        </mxCell>
        <mxCell id="WH_qL8bAJBr36jCPPk6z-41" value="" style="endArrow=classic;html=1;rounded=0;fontSize=11;exitX=0;exitY=0.5;exitDx=0;exitDy=0;entryX=1;entryY=0.5;entryDx=0;entryDy=0;" parent="1" source="WH_qL8bAJBr36jCPPk6z-40" target="WH_qL8bAJBr36jCPPk6z-47" edge="1">
          <mxGeometry relative="1" as="geometry">
            <mxPoint x="-1070" y="1599.5" as="sourcePoint" />
            <mxPoint x="-980" y="1590" as="targetPoint" />
          </mxGeometry>
        </mxCell>
        <mxCell id="WH_qL8bAJBr36jCPPk6z-42" value="true" style="edgeLabel;resizable=0;html=1;align=center;verticalAlign=middle;fontSize=11;" parent="WH_qL8bAJBr36jCPPk6z-41" connectable="0" vertex="1">
          <mxGeometry relative="1" as="geometry">
            <mxPoint y="-9" as="offset" />
          </mxGeometry>
        </mxCell>
        <mxCell id="WH_qL8bAJBr36jCPPk6z-43" value="" style="endArrow=classic;html=1;rounded=0;fontSize=11;exitX=0.5;exitY=1;exitDx=0;exitDy=0;entryX=0.5;entryY=0;entryDx=0;entryDy=0;" parent="1" source="WH_qL8bAJBr36jCPPk6z-40" target="WH_qL8bAJBr36jCPPk6z-46" edge="1">
          <mxGeometry relative="1" as="geometry">
            <mxPoint x="-880" y="1700" as="sourcePoint" />
            <mxPoint x="-860" y="1700" as="targetPoint" />
          </mxGeometry>
        </mxCell>
        <mxCell id="WH_qL8bAJBr36jCPPk6z-44" value="false" style="edgeLabel;resizable=0;html=1;align=center;verticalAlign=middle;fontSize=11;" parent="WH_qL8bAJBr36jCPPk6z-43" connectable="0" vertex="1">
          <mxGeometry relative="1" as="geometry">
            <mxPoint y="-10" as="offset" />
          </mxGeometry>
        </mxCell>
        <mxCell id="WH_qL8bAJBr36jCPPk6z-45" style="edgeStyle=orthogonalEdgeStyle;rounded=0;orthogonalLoop=1;jettySize=auto;html=1;exitX=1;exitY=0.5;exitDx=0;exitDy=0;entryX=0.5;entryY=1;entryDx=0;entryDy=0;fontSize=11;" parent="1" source="WH_qL8bAJBr36jCPPk6z-46" target="WH_qL8bAJBr36jCPPk6z-39" edge="1">
          <mxGeometry relative="1" as="geometry" />
        </mxCell>
        <mxCell id="WH_qL8bAJBr36jCPPk6z-46" value="Error: invalid &lt;br&gt;selection" style="shape=parallelogram;perimeter=parallelogramPerimeter;whiteSpace=wrap;html=1;fixedSize=1;fontSize=11;" parent="1" vertex="1">
          <mxGeometry x="-920" y="1730" width="120" height="60" as="geometry" />
        </mxCell>
        <mxCell id="WH_qL8bAJBr36jCPPk6z-47" value="place &lt;br&gt;order?" style="rhombus;whiteSpace=wrap;html=1;fontSize=11;" parent="1" vertex="1">
          <mxGeometry x="-1060" y="1550" width="80" height="80" as="geometry" />
        </mxCell>
        <mxCell id="WH_qL8bAJBr36jCPPk6z-48" value="" style="endArrow=classic;html=1;rounded=0;fontSize=11;exitX=0;exitY=0.5;exitDx=0;exitDy=0;entryX=1;entryY=0.5;entryDx=0;entryDy=0;" parent="1" source="WH_qL8bAJBr36jCPPk6z-47" target="WH_qL8bAJBr36jCPPk6z-34" edge="1">
          <mxGeometry relative="1" as="geometry">
            <mxPoint x="-1210" y="1570" as="sourcePoint" />
            <mxPoint x="-1170" y="1590" as="targetPoint" />
          </mxGeometry>
        </mxCell>
        <mxCell id="WH_qL8bAJBr36jCPPk6z-49" value="True" style="edgeLabel;resizable=0;html=1;align=center;verticalAlign=middle;fontSize=11;" parent="WH_qL8bAJBr36jCPPk6z-48" connectable="0" vertex="1">
          <mxGeometry relative="1" as="geometry">
            <mxPoint y="-10" as="offset" />
          </mxGeometry>
        </mxCell>
        <mxCell id="WH_qL8bAJBr36jCPPk6z-50" value="" style="endArrow=classic;html=1;rounded=0;fontSize=11;exitX=0.5;exitY=0;exitDx=0;exitDy=0;" parent="1" source="WH_qL8bAJBr36jCPPk6z-47" edge="1">
          <mxGeometry relative="1" as="geometry">
            <mxPoint x="-1260" y="1510" as="sourcePoint" />
            <mxPoint x="-1460" y="1350" as="targetPoint" />
            <Array as="points">
              <mxPoint x="-1020" y="1520" />
              <mxPoint x="-1310" y="1520" />
              <mxPoint x="-1310" y="1350" />
            </Array>
          </mxGeometry>
        </mxCell>
        <mxCell id="WH_qL8bAJBr36jCPPk6z-51" value="False" style="edgeLabel;resizable=0;html=1;align=center;verticalAlign=middle;fontSize=11;" parent="WH_qL8bAJBr36jCPPk6z-50" connectable="0" vertex="1">
          <mxGeometry relative="1" as="geometry">
            <mxPoint x="110" y="-10" as="offset" />
          </mxGeometry>
        </mxCell>
        <mxCell id="WH_qL8bAJBr36jCPPk6z-52" value="Add order to order list/file" style="rounded=0;whiteSpace=wrap;html=1;fontSize=11;" parent="1" vertex="1">
          <mxGeometry x="-1520" y="1560" width="120" height="60" as="geometry" />
        </mxCell>
        <mxCell id="WH_qL8bAJBr36jCPPk6z-65" value="minimum &lt;br&gt;area 100?&amp;nbsp;" style="rhombus;whiteSpace=wrap;html=1;fontSize=11;" parent="1" vertex="1">
          <mxGeometry x="-575" y="1860" width="80" height="80" as="geometry" />
        </mxCell>
        <mxCell id="WH_qL8bAJBr36jCPPk6z-67" value="" style="endArrow=classic;html=1;rounded=0;fontSize=11;exitX=0.5;exitY=0;exitDx=0;exitDy=0;" parent="1" source="WH_qL8bAJBr36jCPPk6z-65" edge="1">
          <mxGeometry relative="1" as="geometry">
            <mxPoint x="-545" y="1820" as="sourcePoint" />
            <mxPoint x="-535" y="1770" as="targetPoint" />
          </mxGeometry>
        </mxCell>
        <mxCell id="WH_qL8bAJBr36jCPPk6z-68" value="false" style="edgeLabel;resizable=0;html=1;align=center;verticalAlign=middle;fontSize=11;" parent="WH_qL8bAJBr36jCPPk6z-67" connectable="0" vertex="1">
          <mxGeometry relative="1" as="geometry">
            <mxPoint x="17" y="9" as="offset" />
          </mxGeometry>
        </mxCell>
        <mxCell id="WH_qL8bAJBr36jCPPk6z-69" value="" style="endArrow=classic;html=1;rounded=0;fontSize=11;exitX=0;exitY=0.5;exitDx=0;exitDy=0;entryX=1;entryY=0.5;entryDx=0;entryDy=0;" parent="1" source="WH_qL8bAJBr36jCPPk6z-65" target="WH_qL8bAJBr36jCPPk6z-72" edge="1">
          <mxGeometry relative="1" as="geometry">
            <mxPoint x="-705" y="1910" as="sourcePoint" />
            <mxPoint x="-665" y="1900" as="targetPoint" />
          </mxGeometry>
        </mxCell>
        <mxCell id="WH_qL8bAJBr36jCPPk6z-70" value="True" style="edgeLabel;resizable=0;html=1;align=center;verticalAlign=middle;fontSize=11;" parent="WH_qL8bAJBr36jCPPk6z-69" connectable="0" vertex="1">
          <mxGeometry relative="1" as="geometry">
            <mxPoint x="-10" y="-10" as="offset" />
          </mxGeometry>
        </mxCell>
        <mxCell id="WH_qL8bAJBr36jCPPk6z-71" value="Error: Number &lt;br&gt;entered must &lt;br&gt;be positive and &amp;gt; 100" style="shape=parallelogram;perimeter=parallelogramPerimeter;whiteSpace=wrap;html=1;fixedSize=1;fontSize=11;" parent="1" vertex="1">
          <mxGeometry x="-595" y="1700" width="140" height="70" as="geometry" />
        </mxCell>
        <mxCell id="WH_qL8bAJBr36jCPPk6z-72" value="service: Calculate cost per square foot" style="rounded=0;whiteSpace=wrap;html=1;fontSize=11;" parent="1" vertex="1">
          <mxGeometry x="-825" y="1870" width="120" height="60" as="geometry" />
        </mxCell>
        <mxCell id="WH_qL8bAJBr36jCPPk6z-73" value="Service: Calculate Labor cost per square foot" style="rounded=0;whiteSpace=wrap;html=1;fontSize=11;" parent="1" vertex="1">
          <mxGeometry x="-825" y="2030" width="120" height="60" as="geometry" />
        </mxCell>
        <mxCell id="WH_qL8bAJBr36jCPPk6z-74" style="edgeStyle=orthogonalEdgeStyle;rounded=0;orthogonalLoop=1;jettySize=auto;html=1;exitX=0.5;exitY=1;exitDx=0;exitDy=0;entryX=0;entryY=0.5;entryDx=0;entryDy=0;fontSize=11;" parent="1" source="WH_qL8bAJBr36jCPPk6z-75" target="WH_qL8bAJBr36jCPPk6z-77" edge="1">
          <mxGeometry relative="1" as="geometry" />
        </mxCell>
        <mxCell id="WH_qL8bAJBr36jCPPk6z-75" value="Service: Calculate Material cost" style="rounded=0;whiteSpace=wrap;html=1;fontSize=11;" parent="1" vertex="1">
          <mxGeometry x="-825" y="2180" width="120" height="60" as="geometry" />
        </mxCell>
        <mxCell id="WH_qL8bAJBr36jCPPk6z-76" style="edgeStyle=orthogonalEdgeStyle;rounded=0;orthogonalLoop=1;jettySize=auto;html=1;exitX=1;exitY=0.5;exitDx=0;exitDy=0;fontSize=11;entryX=0;entryY=0.5;entryDx=0;entryDy=0;" parent="1" source="WH_qL8bAJBr36jCPPk6z-77" target="WH_qL8bAJBr36jCPPk6z-79" edge="1">
          <mxGeometry relative="1" as="geometry">
            <mxPoint x="-425" y="2300" as="targetPoint" />
          </mxGeometry>
        </mxCell>
        <mxCell id="WH_qL8bAJBr36jCPPk6z-77" value="Service: Calculate Labor cost" style="rounded=0;whiteSpace=wrap;html=1;fontSize=11;" parent="1" vertex="1">
          <mxGeometry x="-605" y="2270" width="120" height="60" as="geometry" />
        </mxCell>
        <mxCell id="WH_qL8bAJBr36jCPPk6z-78" style="edgeStyle=orthogonalEdgeStyle;rounded=0;orthogonalLoop=1;jettySize=auto;html=1;exitX=1;exitY=0.5;exitDx=0;exitDy=0;fontSize=11;entryX=0;entryY=0.5;entryDx=0;entryDy=0;" parent="1" source="WH_qL8bAJBr36jCPPk6z-79" target="WH_qL8bAJBr36jCPPk6z-80" edge="1">
          <mxGeometry relative="1" as="geometry">
            <mxPoint x="-135" y="2300" as="targetPoint" />
          </mxGeometry>
        </mxCell>
        <mxCell id="WH_qL8bAJBr36jCPPk6z-79" value="Service: Calculate tax" style="rounded=0;whiteSpace=wrap;html=1;fontSize=11;" parent="1" vertex="1">
          <mxGeometry x="-355" y="2270" width="120" height="60" as="geometry" />
        </mxCell>
        <mxCell id="WH_qL8bAJBr36jCPPk6z-80" value="Service: Calculate Total" style="rounded=0;whiteSpace=wrap;html=1;fontSize=11;" parent="1" vertex="1">
          <mxGeometry x="-85" y="2270" width="120" height="60" as="geometry" />
        </mxCell>
        <mxCell id="WH_qL8bAJBr36jCPPk6z-81" value="" style="endArrow=classic;html=1;rounded=0;fontSize=11;exitX=0.5;exitY=1;exitDx=0;exitDy=0;entryX=0.5;entryY=0;entryDx=0;entryDy=0;" parent="1" source="WH_qL8bAJBr36jCPPk6z-72" target="WH_qL8bAJBr36jCPPk6z-73" edge="1">
          <mxGeometry width="50" height="50" relative="1" as="geometry">
            <mxPoint x="-775" y="1990" as="sourcePoint" />
            <mxPoint x="-725" y="1940" as="targetPoint" />
          </mxGeometry>
        </mxCell>
        <mxCell id="WH_qL8bAJBr36jCPPk6z-82" value="" style="endArrow=classic;html=1;rounded=0;fontSize=11;exitX=0.5;exitY=1;exitDx=0;exitDy=0;entryX=0.5;entryY=0;entryDx=0;entryDy=0;" parent="1" source="WH_qL8bAJBr36jCPPk6z-73" target="WH_qL8bAJBr36jCPPk6z-75" edge="1">
          <mxGeometry width="50" height="50" relative="1" as="geometry">
            <mxPoint x="-755" y="2120" as="sourcePoint" />
            <mxPoint x="-705" y="2070" as="targetPoint" />
          </mxGeometry>
        </mxCell>
        <mxCell id="WH_qL8bAJBr36jCPPk6z-85" style="edgeStyle=orthogonalEdgeStyle;rounded=0;orthogonalLoop=1;jettySize=auto;html=1;exitX=0;exitY=0.5;exitDx=0;exitDy=0;entryX=0.938;entryY=0.625;entryDx=0;entryDy=0;entryPerimeter=0;fontSize=11;" parent="1" source="WH_qL8bAJBr36jCPPk6z-86" target="WH_qL8bAJBr36jCPPk6z-89" edge="1">
          <mxGeometry relative="1" as="geometry" />
        </mxCell>
        <mxCell id="WH_qL8bAJBr36jCPPk6z-86" value="Display order&lt;br&gt;&amp;nbsp;summary" style="shape=parallelogram;perimeter=parallelogramPerimeter;whiteSpace=wrap;html=1;fixedSize=1;fontSize=11;" parent="1" vertex="1">
          <mxGeometry x="-85" y="2400" width="120" height="60" as="geometry" />
        </mxCell>
        <mxCell id="WH_qL8bAJBr36jCPPk6z-87" value="" style="endArrow=classic;html=1;rounded=0;fontSize=11;exitX=0.5;exitY=1;exitDx=0;exitDy=0;entryX=0.5;entryY=0;entryDx=0;entryDy=0;" parent="1" source="WH_qL8bAJBr36jCPPk6z-80" target="WH_qL8bAJBr36jCPPk6z-86" edge="1">
          <mxGeometry width="50" height="50" relative="1" as="geometry">
            <mxPoint x="-15" y="2380" as="sourcePoint" />
            <mxPoint x="35" y="2330" as="targetPoint" />
          </mxGeometry>
        </mxCell>
        <mxCell id="WH_qL8bAJBr36jCPPk6z-88" style="edgeStyle=orthogonalEdgeStyle;rounded=0;orthogonalLoop=1;jettySize=auto;html=1;exitX=0;exitY=0.5;exitDx=0;exitDy=0;entryX=1;entryY=0.5;entryDx=0;entryDy=0;fontSize=11;" parent="1" source="WH_qL8bAJBr36jCPPk6z-89" target="WH_qL8bAJBr36jCPPk6z-90" edge="1">
          <mxGeometry relative="1" as="geometry" />
        </mxCell>
        <mxCell id="WH_qL8bAJBr36jCPPk6z-89" value="prompt user if they want to place order(y/n)" style="shape=parallelogram;perimeter=parallelogramPerimeter;whiteSpace=wrap;html=1;fixedSize=1;fontSize=11;" parent="1" vertex="1">
          <mxGeometry x="-365" y="2380" width="160" height="80" as="geometry" />
        </mxCell>
        <mxCell id="WH_qL8bAJBr36jCPPk6z-90" value="valid &lt;br&gt;selection?" style="rhombus;whiteSpace=wrap;html=1;fontSize=11;" parent="1" vertex="1">
          <mxGeometry x="-515" y="2380" width="80" height="80" as="geometry" />
        </mxCell>
        <mxCell id="WH_qL8bAJBr36jCPPk6z-91" value="" style="endArrow=classic;html=1;rounded=0;fontSize=11;exitX=0;exitY=0.5;exitDx=0;exitDy=0;entryX=1;entryY=0.5;entryDx=0;entryDy=0;" parent="1" source="WH_qL8bAJBr36jCPPk6z-90" target="WH_qL8bAJBr36jCPPk6z-97" edge="1">
          <mxGeometry relative="1" as="geometry">
            <mxPoint x="-685" y="2429.5" as="sourcePoint" />
            <mxPoint x="-595" y="2420" as="targetPoint" />
          </mxGeometry>
        </mxCell>
        <mxCell id="WH_qL8bAJBr36jCPPk6z-92" value="true" style="edgeLabel;resizable=0;html=1;align=center;verticalAlign=middle;fontSize=11;" parent="WH_qL8bAJBr36jCPPk6z-91" connectable="0" vertex="1">
          <mxGeometry relative="1" as="geometry">
            <mxPoint y="-9" as="offset" />
          </mxGeometry>
        </mxCell>
        <mxCell id="WH_qL8bAJBr36jCPPk6z-93" value="" style="endArrow=classic;html=1;rounded=0;fontSize=11;exitX=0.5;exitY=1;exitDx=0;exitDy=0;entryX=0.5;entryY=0;entryDx=0;entryDy=0;" parent="1" source="WH_qL8bAJBr36jCPPk6z-90" target="WH_qL8bAJBr36jCPPk6z-96" edge="1">
          <mxGeometry relative="1" as="geometry">
            <mxPoint x="-495" y="2530" as="sourcePoint" />
            <mxPoint x="-475" y="2530" as="targetPoint" />
          </mxGeometry>
        </mxCell>
        <mxCell id="WH_qL8bAJBr36jCPPk6z-94" value="false" style="edgeLabel;resizable=0;html=1;align=center;verticalAlign=middle;fontSize=11;" parent="WH_qL8bAJBr36jCPPk6z-93" connectable="0" vertex="1">
          <mxGeometry relative="1" as="geometry">
            <mxPoint y="-10" as="offset" />
          </mxGeometry>
        </mxCell>
        <mxCell id="WH_qL8bAJBr36jCPPk6z-95" style="edgeStyle=orthogonalEdgeStyle;rounded=0;orthogonalLoop=1;jettySize=auto;html=1;exitX=1;exitY=0.5;exitDx=0;exitDy=0;entryX=0.5;entryY=1;entryDx=0;entryDy=0;fontSize=11;" parent="1" source="WH_qL8bAJBr36jCPPk6z-96" target="WH_qL8bAJBr36jCPPk6z-89" edge="1">
          <mxGeometry relative="1" as="geometry" />
        </mxCell>
        <mxCell id="WH_qL8bAJBr36jCPPk6z-96" value="Error: invalid &lt;br&gt;selection" style="shape=parallelogram;perimeter=parallelogramPerimeter;whiteSpace=wrap;html=1;fixedSize=1;fontSize=11;" parent="1" vertex="1">
          <mxGeometry x="-535" y="2560" width="120" height="60" as="geometry" />
        </mxCell>
        <mxCell id="WH_qL8bAJBr36jCPPk6z-97" value="place &lt;br&gt;order?" style="rhombus;whiteSpace=wrap;html=1;fontSize=11;" parent="1" vertex="1">
          <mxGeometry x="-675" y="2380" width="80" height="80" as="geometry" />
        </mxCell>
        <mxCell id="WH_qL8bAJBr36jCPPk6z-98" value="" style="endArrow=classic;html=1;rounded=0;fontSize=11;exitX=0;exitY=0.5;exitDx=0;exitDy=0;entryX=1;entryY=0.5;entryDx=0;entryDy=0;" parent="1" source="WH_qL8bAJBr36jCPPk6z-97" target="WH_qL8bAJBr36jCPPk6z-149" edge="1">
          <mxGeometry relative="1" as="geometry">
            <mxPoint x="-825" y="2400" as="sourcePoint" />
            <mxPoint x="-815" y="2420" as="targetPoint" />
          </mxGeometry>
        </mxCell>
        <mxCell id="WH_qL8bAJBr36jCPPk6z-99" value="True" style="edgeLabel;resizable=0;html=1;align=center;verticalAlign=middle;fontSize=11;" parent="WH_qL8bAJBr36jCPPk6z-98" connectable="0" vertex="1">
          <mxGeometry relative="1" as="geometry">
            <mxPoint y="-10" as="offset" />
          </mxGeometry>
        </mxCell>
        <mxCell id="WH_qL8bAJBr36jCPPk6z-100" value="" style="endArrow=classic;html=1;rounded=0;fontSize=11;exitX=0.5;exitY=0;exitDx=0;exitDy=0;" parent="1" source="WH_qL8bAJBr36jCPPk6z-97" edge="1">
          <mxGeometry relative="1" as="geometry">
            <mxPoint x="-875" y="2340" as="sourcePoint" />
            <mxPoint x="-1100" y="1840" as="targetPoint" />
            <Array as="points">
              <mxPoint x="-635" y="2350" />
              <mxPoint x="-1100" y="2350" />
            </Array>
          </mxGeometry>
        </mxCell>
        <mxCell id="WH_qL8bAJBr36jCPPk6z-101" value="False" style="edgeLabel;resizable=0;html=1;align=center;verticalAlign=middle;fontSize=11;" parent="WH_qL8bAJBr36jCPPk6z-100" connectable="0" vertex="1">
          <mxGeometry relative="1" as="geometry">
            <mxPoint x="220" y="-7" as="offset" />
          </mxGeometry>
        </mxCell>
        <mxCell id="WH_qL8bAJBr36jCPPk6z-111" value="Prompt for area" style="shape=parallelogram;perimeter=parallelogramPerimeter;whiteSpace=wrap;html=1;fixedSize=1;fontSize=11;" parent="1" vertex="1">
          <mxGeometry x="-415" y="1870" width="120" height="60" as="geometry" />
        </mxCell>
        <mxCell id="WH_qL8bAJBr36jCPPk6z-112" value="minimum &lt;br&gt;area 100?&amp;nbsp;" style="rhombus;whiteSpace=wrap;html=1;fontSize=11;" parent="1" vertex="1">
          <mxGeometry x="-575" y="1860" width="80" height="80" as="geometry" />
        </mxCell>
        <mxCell id="WH_qL8bAJBr36jCPPk6z-113" value="" style="endArrow=classic;html=1;rounded=0;fontSize=11;exitX=0;exitY=0.5;exitDx=0;exitDy=0;entryX=1;entryY=0.5;entryDx=0;entryDy=0;" parent="1" source="WH_qL8bAJBr36jCPPk6z-111" target="WH_qL8bAJBr36jCPPk6z-112" edge="1">
          <mxGeometry width="50" height="50" relative="1" as="geometry">
            <mxPoint x="-535" y="1990" as="sourcePoint" />
            <mxPoint x="-535" y="1910" as="targetPoint" />
          </mxGeometry>
        </mxCell>
        <mxCell id="WH_qL8bAJBr36jCPPk6z-114" value="" style="endArrow=classic;html=1;rounded=0;fontSize=11;exitX=0.5;exitY=0;exitDx=0;exitDy=0;" parent="1" source="WH_qL8bAJBr36jCPPk6z-112" edge="1">
          <mxGeometry relative="1" as="geometry">
            <mxPoint x="-545" y="1820" as="sourcePoint" />
            <mxPoint x="-535" y="1770" as="targetPoint" />
          </mxGeometry>
        </mxCell>
        <mxCell id="WH_qL8bAJBr36jCPPk6z-115" value="false" style="edgeLabel;resizable=0;html=1;align=center;verticalAlign=middle;fontSize=11;" parent="WH_qL8bAJBr36jCPPk6z-114" connectable="0" vertex="1">
          <mxGeometry relative="1" as="geometry">
            <mxPoint x="17" y="9" as="offset" />
          </mxGeometry>
        </mxCell>
        <mxCell id="WH_qL8bAJBr36jCPPk6z-116" value="" style="endArrow=classic;html=1;rounded=0;fontSize=11;exitX=0;exitY=0.5;exitDx=0;exitDy=0;entryX=1;entryY=0.5;entryDx=0;entryDy=0;" parent="1" source="WH_qL8bAJBr36jCPPk6z-112" target="WH_qL8bAJBr36jCPPk6z-119" edge="1">
          <mxGeometry relative="1" as="geometry">
            <mxPoint x="-705" y="1910" as="sourcePoint" />
            <mxPoint x="-665" y="1900" as="targetPoint" />
          </mxGeometry>
        </mxCell>
        <mxCell id="WH_qL8bAJBr36jCPPk6z-117" value="True" style="edgeLabel;resizable=0;html=1;align=center;verticalAlign=middle;fontSize=11;" parent="WH_qL8bAJBr36jCPPk6z-116" connectable="0" vertex="1">
          <mxGeometry relative="1" as="geometry">
            <mxPoint x="-10" y="-10" as="offset" />
          </mxGeometry>
        </mxCell>
        <mxCell id="WH_qL8bAJBr36jCPPk6z-118" value="Error: Number &lt;br&gt;entered must &lt;br&gt;be positive and &amp;gt; 100" style="shape=parallelogram;perimeter=parallelogramPerimeter;whiteSpace=wrap;html=1;fixedSize=1;fontSize=11;" parent="1" vertex="1">
          <mxGeometry x="-595" y="1700" width="140" height="70" as="geometry" />
        </mxCell>
        <mxCell id="WH_qL8bAJBr36jCPPk6z-119" value="service: Calculate cost per square foot" style="rounded=0;whiteSpace=wrap;html=1;fontSize=11;" parent="1" vertex="1">
          <mxGeometry x="-825" y="1870" width="120" height="60" as="geometry" />
        </mxCell>
        <mxCell id="WH_qL8bAJBr36jCPPk6z-120" value="Service: Calculate Labor cost per square foot" style="rounded=0;whiteSpace=wrap;html=1;fontSize=11;" parent="1" vertex="1">
          <mxGeometry x="-825" y="2030" width="120" height="60" as="geometry" />
        </mxCell>
        <mxCell id="WH_qL8bAJBr36jCPPk6z-121" style="edgeStyle=orthogonalEdgeStyle;rounded=0;orthogonalLoop=1;jettySize=auto;html=1;exitX=0.5;exitY=1;exitDx=0;exitDy=0;entryX=0;entryY=0.5;entryDx=0;entryDy=0;fontSize=11;" parent="1" source="WH_qL8bAJBr36jCPPk6z-122" target="WH_qL8bAJBr36jCPPk6z-124" edge="1">
          <mxGeometry relative="1" as="geometry" />
        </mxCell>
        <mxCell id="WH_qL8bAJBr36jCPPk6z-122" value="Service: Calculate Material cost" style="rounded=0;whiteSpace=wrap;html=1;fontSize=11;" parent="1" vertex="1">
          <mxGeometry x="-825" y="2180" width="120" height="60" as="geometry" />
        </mxCell>
        <mxCell id="WH_qL8bAJBr36jCPPk6z-123" style="edgeStyle=orthogonalEdgeStyle;rounded=0;orthogonalLoop=1;jettySize=auto;html=1;exitX=1;exitY=0.5;exitDx=0;exitDy=0;fontSize=11;entryX=0;entryY=0.5;entryDx=0;entryDy=0;" parent="1" source="WH_qL8bAJBr36jCPPk6z-124" target="WH_qL8bAJBr36jCPPk6z-126" edge="1">
          <mxGeometry relative="1" as="geometry">
            <mxPoint x="-425" y="2300" as="targetPoint" />
          </mxGeometry>
        </mxCell>
        <mxCell id="WH_qL8bAJBr36jCPPk6z-124" value="Service: Calculate Labor cost" style="rounded=0;whiteSpace=wrap;html=1;fontSize=11;" parent="1" vertex="1">
          <mxGeometry x="-605" y="2270" width="120" height="60" as="geometry" />
        </mxCell>
        <mxCell id="WH_qL8bAJBr36jCPPk6z-125" style="edgeStyle=orthogonalEdgeStyle;rounded=0;orthogonalLoop=1;jettySize=auto;html=1;exitX=1;exitY=0.5;exitDx=0;exitDy=0;fontSize=11;entryX=0;entryY=0.5;entryDx=0;entryDy=0;" parent="1" source="WH_qL8bAJBr36jCPPk6z-126" target="WH_qL8bAJBr36jCPPk6z-127" edge="1">
          <mxGeometry relative="1" as="geometry">
            <mxPoint x="-135" y="2300" as="targetPoint" />
          </mxGeometry>
        </mxCell>
        <mxCell id="WH_qL8bAJBr36jCPPk6z-126" value="Service: Calculate tax" style="rounded=0;whiteSpace=wrap;html=1;fontSize=11;" parent="1" vertex="1">
          <mxGeometry x="-355" y="2270" width="120" height="60" as="geometry" />
        </mxCell>
        <mxCell id="WH_qL8bAJBr36jCPPk6z-127" value="Service: Calculate Total" style="rounded=0;whiteSpace=wrap;html=1;fontSize=11;" parent="1" vertex="1">
          <mxGeometry x="-85" y="2270" width="120" height="60" as="geometry" />
        </mxCell>
        <mxCell id="WH_qL8bAJBr36jCPPk6z-128" value="" style="endArrow=classic;html=1;rounded=0;fontSize=11;exitX=0.5;exitY=1;exitDx=0;exitDy=0;entryX=0.5;entryY=0;entryDx=0;entryDy=0;" parent="1" source="WH_qL8bAJBr36jCPPk6z-119" target="WH_qL8bAJBr36jCPPk6z-120" edge="1">
          <mxGeometry width="50" height="50" relative="1" as="geometry">
            <mxPoint x="-775" y="1990" as="sourcePoint" />
            <mxPoint x="-725" y="1940" as="targetPoint" />
          </mxGeometry>
        </mxCell>
        <mxCell id="WH_qL8bAJBr36jCPPk6z-129" value="" style="endArrow=classic;html=1;rounded=0;fontSize=11;exitX=0.5;exitY=1;exitDx=0;exitDy=0;entryX=0.5;entryY=0;entryDx=0;entryDy=0;" parent="1" source="WH_qL8bAJBr36jCPPk6z-120" target="WH_qL8bAJBr36jCPPk6z-122" edge="1">
          <mxGeometry width="50" height="50" relative="1" as="geometry">
            <mxPoint x="-755" y="2120" as="sourcePoint" />
            <mxPoint x="-705" y="2070" as="targetPoint" />
          </mxGeometry>
        </mxCell>
        <mxCell id="WH_qL8bAJBr36jCPPk6z-132" style="edgeStyle=orthogonalEdgeStyle;rounded=0;orthogonalLoop=1;jettySize=auto;html=1;exitX=0;exitY=0.5;exitDx=0;exitDy=0;entryX=0.938;entryY=0.625;entryDx=0;entryDy=0;entryPerimeter=0;fontSize=11;" parent="1" source="WH_qL8bAJBr36jCPPk6z-133" target="WH_qL8bAJBr36jCPPk6z-136" edge="1">
          <mxGeometry relative="1" as="geometry" />
        </mxCell>
        <mxCell id="WH_qL8bAJBr36jCPPk6z-133" value="Display order&lt;br&gt;&amp;nbsp;summary" style="shape=parallelogram;perimeter=parallelogramPerimeter;whiteSpace=wrap;html=1;fixedSize=1;fontSize=11;" parent="1" vertex="1">
          <mxGeometry x="-85" y="2400" width="120" height="60" as="geometry" />
        </mxCell>
        <mxCell id="WH_qL8bAJBr36jCPPk6z-134" value="" style="endArrow=classic;html=1;rounded=0;fontSize=11;exitX=0.5;exitY=1;exitDx=0;exitDy=0;entryX=0.5;entryY=0;entryDx=0;entryDy=0;" parent="1" source="WH_qL8bAJBr36jCPPk6z-127" target="WH_qL8bAJBr36jCPPk6z-133" edge="1">
          <mxGeometry width="50" height="50" relative="1" as="geometry">
            <mxPoint x="-15" y="2380" as="sourcePoint" />
            <mxPoint x="35" y="2330" as="targetPoint" />
          </mxGeometry>
        </mxCell>
        <mxCell id="WH_qL8bAJBr36jCPPk6z-135" style="edgeStyle=orthogonalEdgeStyle;rounded=0;orthogonalLoop=1;jettySize=auto;html=1;exitX=0;exitY=0.5;exitDx=0;exitDy=0;entryX=1;entryY=0.5;entryDx=0;entryDy=0;fontSize=11;" parent="1" source="WH_qL8bAJBr36jCPPk6z-136" target="WH_qL8bAJBr36jCPPk6z-137" edge="1">
          <mxGeometry relative="1" as="geometry" />
        </mxCell>
        <mxCell id="WH_qL8bAJBr36jCPPk6z-136" value="prompt user if edit &lt;br&gt;should be saved(y/n)" style="shape=parallelogram;perimeter=parallelogramPerimeter;whiteSpace=wrap;html=1;fixedSize=1;fontSize=11;" parent="1" vertex="1">
          <mxGeometry x="-365" y="2380" width="160" height="80" as="geometry" />
        </mxCell>
        <mxCell id="WH_qL8bAJBr36jCPPk6z-137" value="valid &lt;br&gt;selection?" style="rhombus;whiteSpace=wrap;html=1;fontSize=11;" parent="1" vertex="1">
          <mxGeometry x="-515" y="2380" width="80" height="80" as="geometry" />
        </mxCell>
        <mxCell id="WH_qL8bAJBr36jCPPk6z-138" value="" style="endArrow=classic;html=1;rounded=0;fontSize=11;exitX=0;exitY=0.5;exitDx=0;exitDy=0;entryX=1;entryY=0.5;entryDx=0;entryDy=0;" parent="1" source="WH_qL8bAJBr36jCPPk6z-137" target="WH_qL8bAJBr36jCPPk6z-144" edge="1">
          <mxGeometry relative="1" as="geometry">
            <mxPoint x="-685" y="2429.5" as="sourcePoint" />
            <mxPoint x="-595" y="2420" as="targetPoint" />
          </mxGeometry>
        </mxCell>
        <mxCell id="WH_qL8bAJBr36jCPPk6z-139" value="true" style="edgeLabel;resizable=0;html=1;align=center;verticalAlign=middle;fontSize=11;" parent="WH_qL8bAJBr36jCPPk6z-138" connectable="0" vertex="1">
          <mxGeometry relative="1" as="geometry">
            <mxPoint y="-9" as="offset" />
          </mxGeometry>
        </mxCell>
        <mxCell id="WH_qL8bAJBr36jCPPk6z-140" value="" style="endArrow=classic;html=1;rounded=0;fontSize=11;exitX=0.5;exitY=1;exitDx=0;exitDy=0;entryX=0.5;entryY=0;entryDx=0;entryDy=0;" parent="1" source="WH_qL8bAJBr36jCPPk6z-137" target="WH_qL8bAJBr36jCPPk6z-143" edge="1">
          <mxGeometry relative="1" as="geometry">
            <mxPoint x="-495" y="2530" as="sourcePoint" />
            <mxPoint x="-475" y="2530" as="targetPoint" />
          </mxGeometry>
        </mxCell>
        <mxCell id="WH_qL8bAJBr36jCPPk6z-141" value="false" style="edgeLabel;resizable=0;html=1;align=center;verticalAlign=middle;fontSize=11;" parent="WH_qL8bAJBr36jCPPk6z-140" connectable="0" vertex="1">
          <mxGeometry relative="1" as="geometry">
            <mxPoint y="-10" as="offset" />
          </mxGeometry>
        </mxCell>
        <mxCell id="WH_qL8bAJBr36jCPPk6z-142" style="edgeStyle=orthogonalEdgeStyle;rounded=0;orthogonalLoop=1;jettySize=auto;html=1;exitX=1;exitY=0.5;exitDx=0;exitDy=0;entryX=0.5;entryY=1;entryDx=0;entryDy=0;fontSize=11;" parent="1" source="WH_qL8bAJBr36jCPPk6z-143" target="WH_qL8bAJBr36jCPPk6z-136" edge="1">
          <mxGeometry relative="1" as="geometry" />
        </mxCell>
        <mxCell id="WH_qL8bAJBr36jCPPk6z-143" value="Error: invalid &lt;br&gt;selection" style="shape=parallelogram;perimeter=parallelogramPerimeter;whiteSpace=wrap;html=1;fixedSize=1;fontSize=11;" parent="1" vertex="1">
          <mxGeometry x="-535" y="2560" width="120" height="60" as="geometry" />
        </mxCell>
        <mxCell id="WH_qL8bAJBr36jCPPk6z-144" value="place &lt;br&gt;order?" style="rhombus;whiteSpace=wrap;html=1;fontSize=11;" parent="1" vertex="1">
          <mxGeometry x="-675" y="2380" width="80" height="80" as="geometry" />
        </mxCell>
        <mxCell id="WH_qL8bAJBr36jCPPk6z-151" style="edgeStyle=orthogonalEdgeStyle;rounded=0;orthogonalLoop=1;jettySize=auto;html=1;exitX=0;exitY=0.5;exitDx=0;exitDy=0;" parent="1" source="WH_qL8bAJBr36jCPPk6z-149" edge="1">
          <mxGeometry relative="1" as="geometry">
            <mxPoint x="-1010" y="2350" as="targetPoint" />
          </mxGeometry>
        </mxCell>
        <mxCell id="WH_qL8bAJBr36jCPPk6z-149" value="Add order to order list/file" style="rounded=0;whiteSpace=wrap;html=1;fontSize=11;" parent="1" vertex="1">
          <mxGeometry x="-950" y="2390" width="120" height="60" as="geometry" />
        </mxCell>
        <mxCell id="WH_qL8bAJBr36jCPPk6z-152" value="Prompt for date" style="shape=parallelogram;perimeter=parallelogramPerimeter;whiteSpace=wrap;html=1;fixedSize=1;fontSize=11;" parent="1" vertex="1">
          <mxGeometry x="480" y="645" width="120" height="60" as="geometry" />
        </mxCell>
        <mxCell id="WH_qL8bAJBr36jCPPk6z-153" style="edgeStyle=orthogonalEdgeStyle;rounded=0;orthogonalLoop=1;jettySize=auto;html=1;exitX=0.5;exitY=1;exitDx=0;exitDy=0;entryX=0.5;entryY=0;entryDx=0;entryDy=0;fontSize=11;" parent="1" source="WH_qL8bAJBr36jCPPk6z-154" target="WH_qL8bAJBr36jCPPk6z-156" edge="1">
          <mxGeometry relative="1" as="geometry" />
        </mxCell>
        <mxCell id="WH_qL8bAJBr36jCPPk6z-154" value="Prompt for order number" style="shape=parallelogram;perimeter=parallelogramPerimeter;whiteSpace=wrap;html=1;fixedSize=1;fontSize=11;" parent="1" vertex="1">
          <mxGeometry x="480" y="770" width="120" height="60" as="geometry" />
        </mxCell>
        <mxCell id="WH_qL8bAJBr36jCPPk6z-155" value="" style="endArrow=classic;html=1;rounded=0;fontSize=11;exitX=0.5;exitY=1;exitDx=0;exitDy=0;entryX=0.5;entryY=0;entryDx=0;entryDy=0;entryPerimeter=0;" parent="1" source="WH_qL8bAJBr36jCPPk6z-152" target="WH_qL8bAJBr36jCPPk6z-154" edge="1">
          <mxGeometry width="50" height="50" relative="1" as="geometry">
            <mxPoint x="540" y="790" as="sourcePoint" />
            <mxPoint x="540" y="780" as="targetPoint" />
          </mxGeometry>
        </mxCell>
        <mxCell id="WH_qL8bAJBr36jCPPk6z-156" value="order number&lt;br&gt;exists for &lt;br&gt;date?" style="rhombus;whiteSpace=wrap;html=1;fontSize=11;" parent="1" vertex="1">
          <mxGeometry x="490" y="900" width="100" height="100" as="geometry" />
        </mxCell>
        <mxCell id="WH_qL8bAJBr36jCPPk6z-159" value="" style="endArrow=classic;html=1;rounded=0;fontSize=11;exitX=0.5;exitY=1;exitDx=0;exitDy=0;entryX=0.558;entryY=-0.017;entryDx=0;entryDy=0;entryPerimeter=0;" parent="1" source="WH_qL8bAJBr36jCPPk6z-156" target="WH_qL8bAJBr36jCPPk6z-167" edge="1">
          <mxGeometry relative="1" as="geometry">
            <mxPoint x="560" y="1090" as="sourcePoint" />
            <mxPoint x="540" y="1080" as="targetPoint" />
          </mxGeometry>
        </mxCell>
        <mxCell id="WH_qL8bAJBr36jCPPk6z-160" value="True" style="edgeLabel;resizable=0;html=1;align=center;verticalAlign=middle;fontSize=11;" parent="WH_qL8bAJBr36jCPPk6z-159" connectable="0" vertex="1">
          <mxGeometry relative="1" as="geometry">
            <mxPoint x="20" y="-10" as="offset" />
          </mxGeometry>
        </mxCell>
        <mxCell id="WH_qL8bAJBr36jCPPk6z-162" value="" style="endArrow=classic;html=1;rounded=0;fontSize=11;exitX=1;exitY=0.5;exitDx=0;exitDy=0;entryX=0;entryY=0.5;entryDx=0;entryDy=0;" parent="1" source="WH_qL8bAJBr36jCPPk6z-156" target="WH_qL8bAJBr36jCPPk6z-164" edge="1">
          <mxGeometry relative="1" as="geometry">
            <mxPoint x="980" y="1005" as="sourcePoint" />
            <mxPoint x="980" y="1045" as="targetPoint" />
            <Array as="points">
              <mxPoint x="650" y="950" />
              <mxPoint x="650" y="1120" />
            </Array>
          </mxGeometry>
        </mxCell>
        <mxCell id="WH_qL8bAJBr36jCPPk6z-163" value="False" style="edgeLabel;resizable=0;html=1;align=center;verticalAlign=middle;fontSize=11;" parent="WH_qL8bAJBr36jCPPk6z-162" connectable="0" vertex="1">
          <mxGeometry relative="1" as="geometry">
            <mxPoint y="-10" as="offset" />
          </mxGeometry>
        </mxCell>
        <mxCell id="WH_qL8bAJBr36jCPPk6z-164" value="Display no order &lt;br&gt;exists for selected date and order number" style="shape=parallelogram;perimeter=parallelogramPerimeter;whiteSpace=wrap;html=1;fixedSize=1;fontSize=11;" parent="1" vertex="1">
          <mxGeometry x="755.8" y="1080" width="160" height="80" as="geometry" />
        </mxCell>
        <mxCell id="WH_qL8bAJBr36jCPPk6z-166" value="" style="endArrow=classic;html=1;rounded=0;exitX=0.5;exitY=1;exitDx=0;exitDy=0;entryX=0.558;entryY=-0.017;entryDx=0;entryDy=0;entryPerimeter=0;" parent="1" source="WLESVQoLexFltELfVNAb-18" target="WH_qL8bAJBr36jCPPk6z-152" edge="1">
          <mxGeometry width="50" height="50" relative="1" as="geometry">
            <mxPoint x="640" y="700" as="sourcePoint" />
            <mxPoint x="690" y="650" as="targetPoint" />
          </mxGeometry>
        </mxCell>
        <mxCell id="WH_qL8bAJBr36jCPPk6z-167" value="Display Order" style="shape=parallelogram;perimeter=parallelogramPerimeter;whiteSpace=wrap;html=1;fixedSize=1;" parent="1" vertex="1">
          <mxGeometry x="470" y="1080" width="120" height="60" as="geometry" />
        </mxCell>
        <mxCell id="WH_qL8bAJBr36jCPPk6z-168" value="Prompt user if they &lt;br&gt;are sure they want to remove order(y/n)" style="shape=parallelogram;perimeter=parallelogramPerimeter;whiteSpace=wrap;html=1;fixedSize=1;" parent="1" vertex="1">
          <mxGeometry x="440" y="1205" width="150" height="75" as="geometry" />
        </mxCell>
        <mxCell id="WH_qL8bAJBr36jCPPk6z-169" value="" style="endArrow=classic;html=1;rounded=0;exitX=0.5;exitY=1;exitDx=0;exitDy=0;entryX=0.573;entryY=0.02;entryDx=0;entryDy=0;entryPerimeter=0;" parent="1" source="WH_qL8bAJBr36jCPPk6z-167" target="WH_qL8bAJBr36jCPPk6z-168" edge="1">
          <mxGeometry width="50" height="50" relative="1" as="geometry">
            <mxPoint x="730" y="870" as="sourcePoint" />
            <mxPoint x="780" y="820" as="targetPoint" />
          </mxGeometry>
        </mxCell>
        <mxCell id="WH_qL8bAJBr36jCPPk6z-170" value="valid &lt;br&gt;selection?" style="rhombus;whiteSpace=wrap;html=1;fontSize=11;" parent="1" vertex="1">
          <mxGeometry x="760" y="1210" width="80" height="80" as="geometry" />
        </mxCell>
        <mxCell id="WH_qL8bAJBr36jCPPk6z-173" value="" style="endArrow=classic;html=1;rounded=0;fontSize=11;exitX=0.5;exitY=1;exitDx=0;exitDy=0;entryX=0.5;entryY=0;entryDx=0;entryDy=0;" parent="1" source="WH_qL8bAJBr36jCPPk6z-170" target="WH_qL8bAJBr36jCPPk6z-175" edge="1">
          <mxGeometry relative="1" as="geometry">
            <mxPoint x="780" y="1360" as="sourcePoint" />
            <mxPoint x="800" y="1360" as="targetPoint" />
          </mxGeometry>
        </mxCell>
        <mxCell id="WH_qL8bAJBr36jCPPk6z-174" value="false" style="edgeLabel;resizable=0;html=1;align=center;verticalAlign=middle;fontSize=11;" parent="WH_qL8bAJBr36jCPPk6z-173" connectable="0" vertex="1">
          <mxGeometry relative="1" as="geometry">
            <mxPoint y="-10" as="offset" />
          </mxGeometry>
        </mxCell>
        <mxCell id="WH_qL8bAJBr36jCPPk6z-175" value="Error: invalid &lt;br&gt;selection" style="shape=parallelogram;perimeter=parallelogramPerimeter;whiteSpace=wrap;html=1;fixedSize=1;fontSize=11;" parent="1" vertex="1">
          <mxGeometry x="740" y="1390" width="120" height="60" as="geometry" />
        </mxCell>
        <mxCell id="WH_qL8bAJBr36jCPPk6z-178" value="valid &lt;br&gt;selection?" style="rhombus;whiteSpace=wrap;html=1;fontSize=11;" parent="1" vertex="1">
          <mxGeometry x="760" y="1210" width="80" height="80" as="geometry" />
        </mxCell>
        <mxCell id="WH_qL8bAJBr36jCPPk6z-181" value="" style="endArrow=classic;html=1;rounded=0;fontSize=11;exitX=0.5;exitY=1;exitDx=0;exitDy=0;entryX=0.5;entryY=0;entryDx=0;entryDy=0;" parent="1" source="WH_qL8bAJBr36jCPPk6z-178" target="WH_qL8bAJBr36jCPPk6z-183" edge="1">
          <mxGeometry relative="1" as="geometry">
            <mxPoint x="780" y="1360" as="sourcePoint" />
            <mxPoint x="800" y="1360" as="targetPoint" />
          </mxGeometry>
        </mxCell>
        <mxCell id="WH_qL8bAJBr36jCPPk6z-182" value="false" style="edgeLabel;resizable=0;html=1;align=center;verticalAlign=middle;fontSize=11;" parent="WH_qL8bAJBr36jCPPk6z-181" connectable="0" vertex="1">
          <mxGeometry relative="1" as="geometry">
            <mxPoint y="-10" as="offset" />
          </mxGeometry>
        </mxCell>
        <mxCell id="WH_qL8bAJBr36jCPPk6z-183" value="Error: invalid &lt;br&gt;selection" style="shape=parallelogram;perimeter=parallelogramPerimeter;whiteSpace=wrap;html=1;fixedSize=1;fontSize=11;" parent="1" vertex="1">
          <mxGeometry x="740" y="1390" width="120" height="60" as="geometry" />
        </mxCell>
        <mxCell id="WH_qL8bAJBr36jCPPk6z-186" value="" style="endArrow=classic;html=1;rounded=0;exitX=0.953;exitY=0.613;exitDx=0;exitDy=0;exitPerimeter=0;entryX=0;entryY=0.5;entryDx=0;entryDy=0;" parent="1" source="WH_qL8bAJBr36jCPPk6z-168" target="WH_qL8bAJBr36jCPPk6z-178" edge="1">
          <mxGeometry width="50" height="50" relative="1" as="geometry">
            <mxPoint x="630" y="1170" as="sourcePoint" />
            <mxPoint x="650" y="1250" as="targetPoint" />
          </mxGeometry>
        </mxCell>
        <mxCell id="WH_qL8bAJBr36jCPPk6z-187" value="" style="endArrow=classic;html=1;rounded=0;exitX=0;exitY=0.5;exitDx=0;exitDy=0;" parent="1" source="WH_qL8bAJBr36jCPPk6z-183" target="WH_qL8bAJBr36jCPPk6z-168" edge="1">
          <mxGeometry width="50" height="50" relative="1" as="geometry">
            <mxPoint x="760" y="1420" as="sourcePoint" />
            <mxPoint x="600" y="1320" as="targetPoint" />
            <Array as="points">
              <mxPoint x="740" y="1420" />
              <mxPoint x="740" y="1360" />
              <mxPoint x="515" y="1360" />
            </Array>
          </mxGeometry>
        </mxCell>
        <mxCell id="WH_qL8bAJBr36jCPPk6z-189" value="Remove Order from File" style="rounded=0;whiteSpace=wrap;html=1;" parent="1" vertex="1">
          <mxGeometry x="890" y="1220" width="120" height="60" as="geometry" />
        </mxCell>
        <mxCell id="WH_qL8bAJBr36jCPPk6z-190" value="" style="endArrow=classic;html=1;rounded=0;exitX=1;exitY=0.5;exitDx=0;exitDy=0;entryX=0;entryY=0.5;entryDx=0;entryDy=0;" parent="1" source="WH_qL8bAJBr36jCPPk6z-178" target="WH_qL8bAJBr36jCPPk6z-189" edge="1">
          <mxGeometry width="50" height="50" relative="1" as="geometry">
            <mxPoint x="860" y="1180" as="sourcePoint" />
            <mxPoint x="910" y="1130" as="targetPoint" />
          </mxGeometry>
        </mxCell>
        <mxCell id="WH_qL8bAJBr36jCPPk6z-191" value="Update audit" style="rounded=0;whiteSpace=wrap;html=1;" parent="1" vertex="1">
          <mxGeometry x="1070" y="1220" width="120" height="60" as="geometry" />
        </mxCell>
        <mxCell id="WH_qL8bAJBr36jCPPk6z-193" value="" style="endArrow=classic;html=1;rounded=0;exitX=1;exitY=0.5;exitDx=0;exitDy=0;entryX=0;entryY=0.5;entryDx=0;entryDy=0;" parent="1" source="WH_qL8bAJBr36jCPPk6z-189" target="WH_qL8bAJBr36jCPPk6z-191" edge="1">
          <mxGeometry width="50" height="50" relative="1" as="geometry">
            <mxPoint x="1040" y="1200" as="sourcePoint" />
            <mxPoint x="1090" y="1150" as="targetPoint" />
          </mxGeometry>
        </mxCell>
        <mxCell id="WH_qL8bAJBr36jCPPk6z-194" value="Update Audit" style="rounded=0;whiteSpace=wrap;html=1;" parent="1" vertex="1">
          <mxGeometry x="-1520" y="1430" width="120" height="60" as="geometry" />
        </mxCell>
        <mxCell id="WH_qL8bAJBr36jCPPk6z-195" value="" style="endArrow=classic;html=1;rounded=0;exitX=0.5;exitY=0;exitDx=0;exitDy=0;entryX=0.5;entryY=1;entryDx=0;entryDy=0;" parent="1" source="WH_qL8bAJBr36jCPPk6z-52" target="WH_qL8bAJBr36jCPPk6z-194" edge="1">
          <mxGeometry width="50" height="50" relative="1" as="geometry">
            <mxPoint x="-1480" y="1550" as="sourcePoint" />
            <mxPoint x="-1430" y="1500" as="targetPoint" />
          </mxGeometry>
        </mxCell>
        <mxCell id="WH_qL8bAJBr36jCPPk6z-197" value="" style="endArrow=classic;html=1;rounded=0;exitX=1.017;exitY=0.633;exitDx=0;exitDy=0;exitPerimeter=0;" parent="1" source="WH_qL8bAJBr36jCPPk6z-191" edge="1">
          <mxGeometry width="50" height="50" relative="1" as="geometry">
            <mxPoint x="1320" y="1230" as="sourcePoint" />
            <mxPoint x="1020" y="260" as="targetPoint" />
            <Array as="points">
              <mxPoint x="1380" y="1258" />
              <mxPoint x="1380" y="260" />
            </Array>
          </mxGeometry>
        </mxCell>
        <mxCell id="WH_qL8bAJBr36jCPPk6z-198" value="" style="endArrow=classic;html=1;rounded=0;exitX=0.956;exitY=0.6;exitDx=0;exitDy=0;exitPerimeter=0;" parent="1" source="WH_qL8bAJBr36jCPPk6z-164" edge="1">
          <mxGeometry width="50" height="50" relative="1" as="geometry">
            <mxPoint x="850" y="960" as="sourcePoint" />
            <mxPoint x="1380" y="1128" as="targetPoint" />
            <Array as="points">
              <mxPoint x="1140" y="1128" />
            </Array>
          </mxGeometry>
        </mxCell>
        <mxCell id="WH_qL8bAJBr36jCPPk6z-202" style="edgeStyle=orthogonalEdgeStyle;rounded=0;orthogonalLoop=1;jettySize=auto;html=1;exitX=0.5;exitY=1;exitDx=0;exitDy=0;entryX=0.5;entryY=0;entryDx=0;entryDy=0;" parent="1" source="WH_qL8bAJBr36jCPPk6z-199" target="WH_qL8bAJBr36jCPPk6z-201" edge="1">
          <mxGeometry relative="1" as="geometry" />
        </mxCell>
        <mxCell id="WH_qL8bAJBr36jCPPk6z-199" value="Prompt user for &lt;br&gt;name of file" style="shape=parallelogram;perimeter=parallelogramPerimeter;whiteSpace=wrap;html=1;fixedSize=1;" parent="1" vertex="1">
          <mxGeometry x="620" y="645" width="120" height="60" as="geometry" />
        </mxCell>
        <mxCell id="WH_qL8bAJBr36jCPPk6z-200" value="" style="endArrow=classic;html=1;rounded=0;exitX=0.5;exitY=1;exitDx=0;exitDy=0;entryX=0.558;entryY=0;entryDx=0;entryDy=0;entryPerimeter=0;" parent="1" source="WLESVQoLexFltELfVNAb-19" target="WH_qL8bAJBr36jCPPk6z-199" edge="1">
          <mxGeometry width="50" height="50" relative="1" as="geometry">
            <mxPoint x="720" y="630" as="sourcePoint" />
            <mxPoint x="770" y="580" as="targetPoint" />
          </mxGeometry>
        </mxCell>
        <mxCell id="WH_qL8bAJBr36jCPPk6z-201" value="alphabetic &lt;br&gt;and numerical characters &lt;br&gt;only?" style="rhombus;whiteSpace=wrap;html=1;" parent="1" vertex="1">
          <mxGeometry x="625" y="745" width="110" height="110" as="geometry" />
        </mxCell>
        <mxCell id="WH_qL8bAJBr36jCPPk6z-205" value="" style="endArrow=classic;html=1;rounded=0;exitX=1;exitY=0.5;exitDx=0;exitDy=0;entryX=0;entryY=0.5;entryDx=0;entryDy=0;" parent="1" source="WH_qL8bAJBr36jCPPk6z-201" target="WH_qL8bAJBr36jCPPk6z-207" edge="1">
          <mxGeometry relative="1" as="geometry">
            <mxPoint x="770" y="799.5" as="sourcePoint" />
            <mxPoint x="870" y="799.5" as="targetPoint" />
          </mxGeometry>
        </mxCell>
        <mxCell id="WH_qL8bAJBr36jCPPk6z-206" value="False" style="edgeLabel;resizable=0;html=1;align=center;verticalAlign=middle;" parent="WH_qL8bAJBr36jCPPk6z-205" connectable="0" vertex="1">
          <mxGeometry relative="1" as="geometry">
            <mxPoint y="-10" as="offset" />
          </mxGeometry>
        </mxCell>
        <mxCell id="WH_qL8bAJBr36jCPPk6z-207" value="Error: filename can &lt;br&gt;only have numeric &lt;br&gt;or alphabetic&lt;br&gt;&amp;nbsp;characters only" style="shape=parallelogram;perimeter=parallelogramPerimeter;whiteSpace=wrap;html=1;fixedSize=1;" parent="1" vertex="1">
          <mxGeometry x="800" y="760" width="160" height="80" as="geometry" />
        </mxCell>
        <mxCell id="WH_qL8bAJBr36jCPPk6z-208" value="" style="endArrow=classic;html=1;rounded=0;exitX=0.956;exitY=0.6;exitDx=0;exitDy=0;exitPerimeter=0;" parent="1" source="WH_qL8bAJBr36jCPPk6z-207" edge="1">
          <mxGeometry width="50" height="50" relative="1" as="geometry">
            <mxPoint x="1020" y="840" as="sourcePoint" />
            <mxPoint x="1380" y="808" as="targetPoint" />
          </mxGeometry>
        </mxCell>
        <mxCell id="fKjB7ZfEQjH2PJQKd2ik-2" value="" style="endArrow=classic;html=1;rounded=0;exitX=0.5;exitY=1;exitDx=0;exitDy=0;entryX=0;entryY=0.5;entryDx=0;entryDy=0;" edge="1" parent="1" source="WH_qL8bAJBr36jCPPk6z-201" target="fKjB7ZfEQjH2PJQKd2ik-4">
          <mxGeometry relative="1" as="geometry">
            <mxPoint x="720" y="950" as="sourcePoint" />
            <mxPoint x="780" y="990" as="targetPoint" />
            <Array as="points">
              <mxPoint x="680" y="990" />
            </Array>
          </mxGeometry>
        </mxCell>
        <mxCell id="fKjB7ZfEQjH2PJQKd2ik-3" value="True" style="edgeLabel;resizable=0;html=1;align=center;verticalAlign=middle;" connectable="0" vertex="1" parent="fKjB7ZfEQjH2PJQKd2ik-2">
          <mxGeometry relative="1" as="geometry">
            <mxPoint x="40" as="offset" />
          </mxGeometry>
        </mxCell>
        <mxCell id="fKjB7ZfEQjH2PJQKd2ik-4" value="Save all order data to file" style="rounded=0;whiteSpace=wrap;html=1;" vertex="1" parent="1">
          <mxGeometry x="780" y="960" width="120" height="60" as="geometry" />
        </mxCell>
        <mxCell id="fKjB7ZfEQjH2PJQKd2ik-5" value="" style="endArrow=classic;html=1;rounded=0;exitX=1.025;exitY=0.633;exitDx=0;exitDy=0;exitPerimeter=0;entryX=0.033;entryY=0.633;entryDx=0;entryDy=0;entryPerimeter=0;" edge="1" parent="1" source="fKjB7ZfEQjH2PJQKd2ik-4" target="fKjB7ZfEQjH2PJQKd2ik-6">
          <mxGeometry width="50" height="50" relative="1" as="geometry">
            <mxPoint x="915.8" y="990" as="sourcePoint" />
            <mxPoint x="965.8" y="940" as="targetPoint" />
          </mxGeometry>
        </mxCell>
        <mxCell id="fKjB7ZfEQjH2PJQKd2ik-6" value="display export complete" style="shape=parallelogram;perimeter=parallelogramPerimeter;whiteSpace=wrap;html=1;fixedSize=1;" vertex="1" parent="1">
          <mxGeometry x="960" y="960" width="120" height="60" as="geometry" />
        </mxCell>
        <mxCell id="fKjB7ZfEQjH2PJQKd2ik-7" value="" style="endArrow=classic;html=1;rounded=0;exitX=1;exitY=0.5;exitDx=0;exitDy=0;" edge="1" parent="1" source="fKjB7ZfEQjH2PJQKd2ik-6">
          <mxGeometry width="50" height="50" relative="1" as="geometry">
            <mxPoint x="1100" y="1020" as="sourcePoint" />
            <mxPoint x="1380" y="990" as="targetPoint" />
          </mxGeometry>
        </mxCell>
      </root>
    </mxGraphModel>
  </diagram>
</mxfile>
